<?xml version="1.0" encoding="UTF-8" standalone="no"?>
<!DOCTYPE svg PUBLIC "-//W3C//DTD SVG 1.1//EN"
 "http://www.w3.org/Graphics/SVG/1.1/DTD/svg11.dtd">
<!-- Generated by graphviz version 2.38.0 (20140413.2041)
 -->
<!-- Title: G Pages: 1 -->
<svg width="295pt" height="259pt"
 viewBox="0.00 0.00 295.00 259.00" xmlns="http://www.w3.org/2000/svg" xmlns:xlink="http://www.w3.org/1999/xlink">
<g id="graph0" class="graph" transform="scale(1 1) rotate(0) translate(4 255)">
<title>G</title>
<polygon fill="white" stroke="none" points="-4,4 -4,-255 291,-255 291,4 -4,4"/>
<g id="clust1" class="cluster"><title>cluster_0</title>
<polygon fill="none" stroke="white" points="8,-48 8,-203 61,-203 61,-48 8,-48"/>
<text text-anchor="middle" x="34.5" y="-187.8" font-family="Times,serif" font-size="14.00">layer 1</text>
</g>
<g id="clust2" class="cluster"><title>cluster_1</title>
<polygon fill="none" stroke="white" points="81,-8 81,-243 134,-243 134,-8 81,-8"/>
<text text-anchor="middle" x="107.5" y="-227.8" font-family="Times,serif" font-size="14.00">layer 2</text>
</g>
<g id="clust3" class="cluster"><title>cluster_2</title>
<polygon fill="none" stroke="white" points="154,-8 154,-243 207,-243 207,-8 154,-8"/>
<text text-anchor="middle" x="180.5" y="-227.8" font-family="Times,serif" font-size="14.00">layer 3</text>
</g>
<g id="clust4" class="cluster"><title>cluster_3</title>
<polygon fill="none" stroke="white" points="227,-28 227,-223 280,-223 280,-28 227,-28"/>
<text text-anchor="middle" x="253.5" y="-207.8" font-family="Times,serif" font-size="14.00">layer 4</text>
</g>
<!-- x1 -->
<g id="node1" class="node"><title>x1</title>
<ellipse fill="none" stroke="#00008b" cx="34" cy="-114" rx="18" ry="18"/>
</g>
<!-- a12 -->
<g id="node4" class="node"><title>a12</title>
<ellipse fill="none" stroke="#ee0000" cx="107" cy="-74" rx="18" ry="18"/>
</g>
<!-- x1&#45;&gt;a12 -->
<g id="edge1" class="edge"><title>x1&#45;&gt;a12</title>
<path fill="none" stroke="black" d="M50.0573,-105.517C59.3764,-100.267 71.5466,-93.4104 82.1549,-87.4339"/>
<polygon fill="black" stroke="black" points="83.9699,-90.4286 90.9644,-82.4707 80.534,-84.3299 83.9699,-90.4286"/>
</g>
<!-- a22 -->
<g id="node5" class="node"><title>a22</title>
<ellipse fill="none" stroke="#ee0000" cx="107" cy="-34" rx="18" ry="18"/>
</g>
<!-- x1&#45;&gt;a22 -->
<g id="edge2" class="edge"><title>x1&#45;&gt;a22</title>
<path fill="none" stroke="black" d="M46.7242,-100.79C57.8903,-88.2081 74.8646,-69.0822 87.7914,-54.5168"/>
<polygon fill="black" stroke="black" points="90.4738,-56.7671 94.494,-46.9646 85.2383,-52.1206 90.4738,-56.7671"/>
</g>
<!-- a32 -->
<g id="node6" class="node"><title>a32</title>
<ellipse fill="none" stroke="#ee0000" cx="107" cy="-194" rx="18" ry="18"/>
</g>
<!-- x1&#45;&gt;a32 -->
<g id="edge3" class="edge"><title>x1&#45;&gt;a32</title>
<path fill="none" stroke="black" d="M46.7242,-127.21C57.8903,-139.792 74.8646,-158.918 87.7914,-173.483"/>
<polygon fill="black" stroke="black" points="85.2383,-175.879 94.494,-181.035 90.4738,-171.233 85.2383,-175.879"/>
</g>
<!-- a42 -->
<g id="node7" class="node"><title>a42</title>
<ellipse fill="none" stroke="#ee0000" cx="107" cy="-154" rx="18" ry="18"/>
</g>
<!-- x1&#45;&gt;a42 -->
<g id="edge4" class="edge"><title>x1&#45;&gt;a42</title>
<path fill="none" stroke="black" d="M50.0573,-122.483C59.3764,-127.733 71.5466,-134.59 82.1549,-140.566"/>
<polygon fill="black" stroke="black" points="80.534,-143.67 90.9644,-145.529 83.9699,-137.571 80.534,-143.67"/>
</g>
<!-- a52 -->
<g id="node8" class="node"><title>a52</title>
<ellipse fill="none" stroke="#ee0000" cx="107" cy="-114" rx="18" ry="18"/>
</g>
<!-- x1&#45;&gt;a52 -->
<g id="edge5" class="edge"><title>x1&#45;&gt;a52</title>
<path fill="none" stroke="black" d="M52.1871,-114C60.2105,-114 69.9525,-114 78.9309,-114"/>
<polygon fill="black" stroke="black" points="78.9712,-117.5 88.9712,-114 78.9711,-110.5 78.9712,-117.5"/>
</g>
<!-- x2 -->
<g id="node2" class="node"><title>x2</title>
<ellipse fill="none" stroke="#00008b" cx="34" cy="-74" rx="18" ry="18"/>
</g>
<!-- x2&#45;&gt;a12 -->
<g id="edge6" class="edge"><title>x2&#45;&gt;a12</title>
<path fill="none" stroke="black" d="M52.1871,-74C60.2105,-74 69.9525,-74 78.9309,-74"/>
<polygon fill="black" stroke="black" points="78.9712,-77.5001 88.9712,-74 78.9711,-70.5001 78.9712,-77.5001"/>
</g>
<!-- x2&#45;&gt;a22 -->
<g id="edge7" class="edge"><title>x2&#45;&gt;a22</title>
<path fill="none" stroke="black" d="M50.0573,-65.517C59.3764,-60.2668 71.5466,-53.4104 82.1549,-47.4339"/>
<polygon fill="black" stroke="black" points="83.9699,-50.4286 90.9644,-42.4707 80.534,-44.3299 83.9699,-50.4286"/>
</g>
<!-- x2&#45;&gt;a32 -->
<g id="edge8" class="edge"><title>x2&#45;&gt;a32</title>
<path fill="none" stroke="black" d="M43.9922,-89.1981C56.0489,-109.576 77.5831,-145.971 91.8312,-170.053"/>
<polygon fill="black" stroke="black" points="88.9764,-172.101 97.0808,-178.925 95.0009,-168.537 88.9764,-172.101"/>
</g>
<!-- x2&#45;&gt;a42 -->
<g id="edge9" class="edge"><title>x2&#45;&gt;a42</title>
<path fill="none" stroke="black" d="M46.7242,-87.2104C57.8903,-99.7919 74.8646,-118.918 87.7914,-133.483"/>
<polygon fill="black" stroke="black" points="85.2383,-135.879 94.494,-141.035 90.4738,-131.233 85.2383,-135.879"/>
</g>
<!-- x2&#45;&gt;a52 -->
<g id="edge10" class="edge"><title>x2&#45;&gt;a52</title>
<path fill="none" stroke="black" d="M50.0573,-82.483C59.3764,-87.7332 71.5466,-94.5896 82.1549,-100.566"/>
<polygon fill="black" stroke="black" points="80.534,-103.67 90.9644,-105.529 83.9699,-97.5714 80.534,-103.67"/>
</g>
<!-- x3 -->
<g id="node3" class="node"><title>x3</title>
<ellipse fill="none" stroke="#00008b" cx="34" cy="-154" rx="18" ry="18"/>
</g>
<!-- x3&#45;&gt;a12 -->
<g id="edge11" class="edge"><title>x3&#45;&gt;a12</title>
<path fill="none" stroke="black" d="M46.7242,-140.79C57.8903,-128.208 74.8646,-109.082 87.7914,-94.5168"/>
<polygon fill="black" stroke="black" points="90.4738,-96.7671 94.494,-86.9646 85.2383,-92.1206 90.4738,-96.7671"/>
</g>
<!-- x3&#45;&gt;a22 -->
<g id="edge12" class="edge"><title>x3&#45;&gt;a22</title>
<path fill="none" stroke="black" d="M43.9922,-138.802C56.0489,-118.424 77.5831,-82.0286 91.8312,-57.9473"/>
<polygon fill="black" stroke="black" points="95.0009,-59.4634 97.0808,-49.0747 88.9764,-55.8988 95.0009,-59.4634"/>
</g>
<!-- x3&#45;&gt;a32 -->
<g id="edge13" class="edge"><title>x3&#45;&gt;a32</title>
<path fill="none" stroke="black" d="M50.0573,-162.483C59.3764,-167.733 71.5466,-174.59 82.1549,-180.566"/>
<polygon fill="black" stroke="black" points="80.534,-183.67 90.9644,-185.529 83.9699,-177.571 80.534,-183.67"/>
</g>
<!-- x3&#45;&gt;a42 -->
<g id="edge14" class="edge"><title>x3&#45;&gt;a42</title>
<path fill="none" stroke="black" d="M52.1871,-154C60.2105,-154 69.9525,-154 78.9309,-154"/>
<polygon fill="black" stroke="black" points="78.9712,-157.5 88.9712,-154 78.9711,-150.5 78.9712,-157.5"/>
</g>
<!-- x3&#45;&gt;a52 -->
<g id="edge15" class="edge"><title>x3&#45;&gt;a52</title>
<path fill="none" stroke="black" d="M50.0573,-145.517C59.3764,-140.267 71.5466,-133.41 82.1549,-127.434"/>
<polygon fill="black" stroke="black" points="83.9699,-130.429 90.9644,-122.471 80.534,-124.33 83.9699,-130.429"/>
</g>
<!-- a13 -->
<g id="node9" class="node"><title>a13</title>
<ellipse fill="none" stroke="#ee0000" cx="180" cy="-74" rx="18" ry="18"/>
</g>
<!-- a12&#45;&gt;a13 -->
<g id="edge16" class="edge"><title>a12&#45;&gt;a13</title>
<path fill="none" stroke="black" d="M125.187,-74C133.211,-74 142.953,-74 151.931,-74"/>
<polygon fill="black" stroke="black" points="151.971,-77.5001 161.971,-74 151.971,-70.5001 151.971,-77.5001"/>
</g>
<!-- a23 -->
<g id="node10" class="node"><title>a23</title>
<ellipse fill="none" stroke="#ee0000" cx="180" cy="-34" rx="18" ry="18"/>
</g>
<!-- a12&#45;&gt;a23 -->
<g id="edge21" class="edge"><title>a12&#45;&gt;a23</title>
<path fill="none" stroke="black" d="M123.057,-65.517C132.376,-60.2668 144.547,-53.4104 155.155,-47.4339"/>
<polygon fill="black" stroke="black" points="156.97,-50.4286 163.964,-42.4707 153.534,-44.3299 156.97,-50.4286"/>
</g>
<!-- a33 -->
<g id="node11" class="node"><title>a33</title>
<ellipse fill="none" stroke="#ee0000" cx="180" cy="-194" rx="18" ry="18"/>
</g>
<!-- a12&#45;&gt;a33 -->
<g id="edge26" class="edge"><title>a12&#45;&gt;a33</title>
<path fill="none" stroke="black" d="M116.992,-89.1981C129.049,-109.576 150.583,-145.971 164.831,-170.053"/>
<polygon fill="black" stroke="black" points="161.976,-172.101 170.081,-178.925 168.001,-168.537 161.976,-172.101"/>
</g>
<!-- a43 -->
<g id="node12" class="node"><title>a43</title>
<ellipse fill="none" stroke="#ee0000" cx="180" cy="-154" rx="18" ry="18"/>
</g>
<!-- a12&#45;&gt;a43 -->
<g id="edge31" class="edge"><title>a12&#45;&gt;a43</title>
<path fill="none" stroke="black" d="M119.724,-87.2104C130.89,-99.7919 147.865,-118.918 160.791,-133.483"/>
<polygon fill="black" stroke="black" points="158.238,-135.879 167.494,-141.035 163.474,-131.233 158.238,-135.879"/>
</g>
<!-- a53 -->
<g id="node13" class="node"><title>a53</title>
<ellipse fill="none" stroke="#ee0000" cx="180" cy="-114" rx="18" ry="18"/>
</g>
<!-- a12&#45;&gt;a53 -->
<g id="edge36" class="edge"><title>a12&#45;&gt;a53</title>
<path fill="none" stroke="black" d="M123.057,-82.483C132.376,-87.7332 144.547,-94.5896 155.155,-100.566"/>
<polygon fill="black" stroke="black" points="153.534,-103.67 163.964,-105.529 156.97,-97.5714 153.534,-103.67"/>
</g>
<!-- a22&#45;&gt;a13 -->
<g id="edge17" class="edge"><title>a22&#45;&gt;a13</title>
<path fill="none" stroke="black" d="M123.057,-42.483C132.376,-47.7332 144.547,-54.5896 155.155,-60.5661"/>
<polygon fill="black" stroke="black" points="153.534,-63.6701 163.964,-65.5293 156.97,-57.5714 153.534,-63.6701"/>
</g>
<!-- a22&#45;&gt;a23 -->
<g id="edge22" class="edge"><title>a22&#45;&gt;a23</title>
<path fill="none" stroke="black" d="M125.187,-34C133.211,-34 142.953,-34 151.931,-34"/>
<polygon fill="black" stroke="black" points="151.971,-37.5001 161.971,-34 151.971,-30.5001 151.971,-37.5001"/>
</g>
<!-- a22&#45;&gt;a33 -->
<g id="edge27" class="edge"><title>a22&#45;&gt;a33</title>
<path fill="none" stroke="black" d="M115.199,-50.2222C127.531,-78.0136 152.794,-134.945 167.562,-168.224"/>
<polygon fill="black" stroke="black" points="164.527,-170.014 171.782,-177.735 170.925,-167.175 164.527,-170.014"/>
</g>
<!-- a22&#45;&gt;a43 -->
<g id="edge32" class="edge"><title>a22&#45;&gt;a43</title>
<path fill="none" stroke="black" d="M116.992,-49.1981C129.049,-69.5756 150.583,-105.971 164.831,-130.053"/>
<polygon fill="black" stroke="black" points="161.976,-132.101 170.081,-138.925 168.001,-128.537 161.976,-132.101"/>
</g>
<!-- a22&#45;&gt;a53 -->
<g id="edge37" class="edge"><title>a22&#45;&gt;a53</title>
<path fill="none" stroke="black" d="M119.724,-47.2104C130.89,-59.7919 147.865,-78.9178 160.791,-93.4832"/>
<polygon fill="black" stroke="black" points="158.238,-95.8794 167.494,-101.035 163.474,-91.2329 158.238,-95.8794"/>
</g>
<!-- a32&#45;&gt;a13 -->
<g id="edge18" class="edge"><title>a32&#45;&gt;a13</title>
<path fill="none" stroke="black" d="M116.992,-178.802C129.049,-158.424 150.583,-122.029 164.831,-97.9473"/>
<polygon fill="black" stroke="black" points="168.001,-99.4634 170.081,-89.0747 161.976,-95.8988 168.001,-99.4634"/>
</g>
<!-- a32&#45;&gt;a23 -->
<g id="edge23" class="edge"><title>a32&#45;&gt;a23</title>
<path fill="none" stroke="black" d="M115.199,-177.778C127.531,-149.986 152.794,-93.0553 167.562,-59.7755"/>
<polygon fill="black" stroke="black" points="170.925,-60.8252 171.782,-50.2651 164.527,-57.9859 170.925,-60.8252"/>
</g>
<!-- a32&#45;&gt;a33 -->
<g id="edge28" class="edge"><title>a32&#45;&gt;a33</title>
<path fill="none" stroke="black" d="M125.187,-194C133.211,-194 142.953,-194 151.931,-194"/>
<polygon fill="black" stroke="black" points="151.971,-197.5 161.971,-194 151.971,-190.5 151.971,-197.5"/>
</g>
<!-- a32&#45;&gt;a43 -->
<g id="edge33" class="edge"><title>a32&#45;&gt;a43</title>
<path fill="none" stroke="black" d="M123.057,-185.517C132.376,-180.267 144.547,-173.41 155.155,-167.434"/>
<polygon fill="black" stroke="black" points="156.97,-170.429 163.964,-162.471 153.534,-164.33 156.97,-170.429"/>
</g>
<!-- a32&#45;&gt;a53 -->
<g id="edge38" class="edge"><title>a32&#45;&gt;a53</title>
<path fill="none" stroke="black" d="M119.724,-180.79C130.89,-168.208 147.865,-149.082 160.791,-134.517"/>
<polygon fill="black" stroke="black" points="163.474,-136.767 167.494,-126.965 158.238,-132.121 163.474,-136.767"/>
</g>
<!-- a42&#45;&gt;a13 -->
<g id="edge19" class="edge"><title>a42&#45;&gt;a13</title>
<path fill="none" stroke="black" d="M119.724,-140.79C130.89,-128.208 147.865,-109.082 160.791,-94.5168"/>
<polygon fill="black" stroke="black" points="163.474,-96.7671 167.494,-86.9646 158.238,-92.1206 163.474,-96.7671"/>
</g>
<!-- a42&#45;&gt;a23 -->
<g id="edge24" class="edge"><title>a42&#45;&gt;a23</title>
<path fill="none" stroke="black" d="M116.992,-138.802C129.049,-118.424 150.583,-82.0286 164.831,-57.9473"/>
<polygon fill="black" stroke="black" points="168.001,-59.4634 170.081,-49.0747 161.976,-55.8988 168.001,-59.4634"/>
</g>
<!-- a42&#45;&gt;a33 -->
<g id="edge29" class="edge"><title>a42&#45;&gt;a33</title>
<path fill="none" stroke="black" d="M123.057,-162.483C132.376,-167.733 144.547,-174.59 155.155,-180.566"/>
<polygon fill="black" stroke="black" points="153.534,-183.67 163.964,-185.529 156.97,-177.571 153.534,-183.67"/>
</g>
<!-- a42&#45;&gt;a43 -->
<g id="edge34" class="edge"><title>a42&#45;&gt;a43</title>
<path fill="none" stroke="black" d="M125.187,-154C133.211,-154 142.953,-154 151.931,-154"/>
<polygon fill="black" stroke="black" points="151.971,-157.5 161.971,-154 151.971,-150.5 151.971,-157.5"/>
</g>
<!-- a42&#45;&gt;a53 -->
<g id="edge39" class="edge"><title>a42&#45;&gt;a53</title>
<path fill="none" stroke="black" d="M123.057,-145.517C132.376,-140.267 144.547,-133.41 155.155,-127.434"/>
<polygon fill="black" stroke="black" points="156.97,-130.429 163.964,-122.471 153.534,-124.33 156.97,-130.429"/>
</g>
<!-- a52&#45;&gt;a13 -->
<g id="edge20" class="edge"><title>a52&#45;&gt;a13</title>
<path fill="none" stroke="black" d="M123.057,-105.517C132.376,-100.267 144.547,-93.4104 155.155,-87.4339"/>
<polygon fill="black" stroke="black" points="156.97,-90.4286 163.964,-82.4707 153.534,-84.3299 156.97,-90.4286"/>
</g>
<!-- a52&#45;&gt;a23 -->
<g id="edge25" class="edge"><title>a52&#45;&gt;a23</title>
<path fill="none" stroke="black" d="M119.724,-100.79C130.89,-88.2081 147.865,-69.0822 160.791,-54.5168"/>
<polygon fill="black" stroke="black" points="163.474,-56.7671 167.494,-46.9646 158.238,-52.1206 163.474,-56.7671"/>
</g>
<!-- a52&#45;&gt;a33 -->
<g id="edge30" class="edge"><title>a52&#45;&gt;a33</title>
<path fill="none" stroke="black" d="M119.724,-127.21C130.89,-139.792 147.865,-158.918 160.791,-173.483"/>
<polygon fill="black" stroke="black" points="158.238,-175.879 167.494,-181.035 163.474,-171.233 158.238,-175.879"/>
</g>
<!-- a52&#45;&gt;a43 -->
<g id="edge35" class="edge"><title>a52&#45;&gt;a43</title>
<path fill="none" stroke="black" d="M123.057,-122.483C132.376,-127.733 144.547,-134.59 155.155,-140.566"/>
<polygon fill="black" stroke="black" points="153.534,-143.67 163.964,-145.529 156.97,-137.571 153.534,-143.67"/>
</g>
<!-- a52&#45;&gt;a53 -->
<g id="edge40" class="edge"><title>a52&#45;&gt;a53</title>
<path fill="none" stroke="black" d="M125.187,-114C133.211,-114 142.953,-114 151.931,-114"/>
<polygon fill="black" stroke="black" points="151.971,-117.5 161.971,-114 151.971,-110.5 151.971,-117.5"/>
</g>
<!-- O1 -->
<g id="node14" class="node"><title>O1</title>
<ellipse fill="none" stroke="#4eee94" cx="253" cy="-174" rx="18" ry="18"/>
</g>
<!-- a13&#45;&gt;O1 -->
<g id="edge41" class="edge"><title>a13&#45;&gt;O1</title>
<path fill="none" stroke="black" d="M191.173,-88.3276C202.877,-104.813 222.246,-132.093 235.98,-151.437"/>
<polygon fill="black" stroke="black" points="233.203,-153.571 241.846,-159.699 238.911,-149.519 233.203,-153.571"/>
</g>
<!-- O2 -->
<g id="node15" class="node"><title>O2</title>
<ellipse fill="none" stroke="#4eee94" cx="253" cy="-134" rx="18" ry="18"/>
</g>
<!-- a13&#45;&gt;O2 -->
<g id="edge46" class="edge"><title>a13&#45;&gt;O2</title>
<path fill="none" stroke="black" d="M194.355,-85.2855C204.668,-94.0013 219.134,-106.226 230.994,-116.248"/>
<polygon fill="black" stroke="black" points="228.808,-118.984 238.705,-122.765 233.326,-113.637 228.808,-118.984"/>
</g>
<!-- O3 -->
<g id="node16" class="node"><title>O3</title>
<ellipse fill="none" stroke="#4eee94" cx="253" cy="-94" rx="18" ry="18"/>
</g>
<!-- a13&#45;&gt;O3 -->
<g id="edge51" class="edge"><title>a13&#45;&gt;O3</title>
<path fill="none" stroke="black" d="M197.467,-78.6387C205.77,-80.9776 216.046,-83.872 225.43,-86.5156"/>
<polygon fill="black" stroke="black" points="224.555,-89.905 235.129,-89.2476 226.453,-83.1673 224.555,-89.905"/>
</g>
<!-- O4 -->
<g id="node17" class="node"><title>O4</title>
<ellipse fill="none" stroke="#4eee94" cx="253" cy="-54" rx="18" ry="18"/>
</g>
<!-- a13&#45;&gt;O4 -->
<g id="edge56" class="edge"><title>a13&#45;&gt;O4</title>
<path fill="none" stroke="black" d="M197.467,-69.3613C205.77,-67.0224 216.046,-64.128 225.43,-61.4844"/>
<polygon fill="black" stroke="black" points="226.453,-64.8327 235.129,-58.7524 224.555,-58.095 226.453,-64.8327"/>
</g>
<!-- a23&#45;&gt;O1 -->
<g id="edge42" class="edge"><title>a23&#45;&gt;O1</title>
<path fill="none" stroke="black" d="M189.007,-49.7876C201.258,-73.9449 224.765,-120.297 239.342,-149.04"/>
<polygon fill="black" stroke="black" points="236.269,-150.72 243.914,-158.055 242.512,-147.554 236.269,-150.72"/>
</g>
<!-- a23&#45;&gt;O2 -->
<g id="edge47" class="edge"><title>a23&#45;&gt;O2</title>
<path fill="none" stroke="black" d="M191.173,-48.3276C202.877,-64.8128 222.246,-92.0931 235.98,-111.437"/>
<polygon fill="black" stroke="black" points="233.203,-113.571 241.846,-119.699 238.911,-109.519 233.203,-113.571"/>
</g>
<!-- a23&#45;&gt;O3 -->
<g id="edge52" class="edge"><title>a23&#45;&gt;O3</title>
<path fill="none" stroke="black" d="M194.355,-45.2855C204.668,-54.0013 219.134,-66.2258 230.994,-76.2484"/>
<polygon fill="black" stroke="black" points="228.808,-78.9837 238.705,-82.7651 233.326,-73.6371 228.808,-78.9837"/>
</g>
<!-- a23&#45;&gt;O4 -->
<g id="edge57" class="edge"><title>a23&#45;&gt;O4</title>
<path fill="none" stroke="black" d="M197.467,-38.6387C205.77,-40.9776 216.046,-43.872 225.43,-46.5156"/>
<polygon fill="black" stroke="black" points="224.555,-49.905 235.129,-49.2476 226.453,-43.1673 224.555,-49.905"/>
</g>
<!-- a33&#45;&gt;O1 -->
<g id="edge43" class="edge"><title>a33&#45;&gt;O1</title>
<path fill="none" stroke="black" d="M197.467,-189.361C205.77,-187.022 216.046,-184.128 225.43,-181.484"/>
<polygon fill="black" stroke="black" points="226.453,-184.833 235.129,-178.752 224.555,-178.095 226.453,-184.833"/>
</g>
<!-- a33&#45;&gt;O2 -->
<g id="edge48" class="edge"><title>a33&#45;&gt;O2</title>
<path fill="none" stroke="black" d="M194.355,-182.714C204.668,-173.999 219.134,-161.774 230.994,-151.752"/>
<polygon fill="black" stroke="black" points="233.326,-154.363 238.705,-145.235 228.808,-149.016 233.326,-154.363"/>
</g>
<!-- a33&#45;&gt;O3 -->
<g id="edge53" class="edge"><title>a33&#45;&gt;O3</title>
<path fill="none" stroke="black" d="M191.173,-179.672C202.877,-163.187 222.246,-135.907 235.98,-116.563"/>
<polygon fill="black" stroke="black" points="238.911,-118.481 241.846,-108.301 233.203,-114.429 238.911,-118.481"/>
</g>
<!-- a33&#45;&gt;O4 -->
<g id="edge58" class="edge"><title>a33&#45;&gt;O4</title>
<path fill="none" stroke="black" d="M189.007,-178.212C201.258,-154.055 224.765,-107.703 239.342,-78.9598"/>
<polygon fill="black" stroke="black" points="242.512,-80.4465 243.914,-69.9447 236.269,-77.2803 242.512,-80.4465"/>
</g>
<!-- a43&#45;&gt;O1 -->
<g id="edge44" class="edge"><title>a43&#45;&gt;O1</title>
<path fill="none" stroke="black" d="M197.467,-158.639C205.77,-160.978 216.046,-163.872 225.43,-166.516"/>
<polygon fill="black" stroke="black" points="224.555,-169.905 235.129,-169.248 226.453,-163.167 224.555,-169.905"/>
</g>
<!-- a43&#45;&gt;O2 -->
<g id="edge49" class="edge"><title>a43&#45;&gt;O2</title>
<path fill="none" stroke="black" d="M197.467,-149.361C205.77,-147.022 216.046,-144.128 225.43,-141.484"/>
<polygon fill="black" stroke="black" points="226.453,-144.833 235.129,-138.752 224.555,-138.095 226.453,-144.833"/>
</g>
<!-- a43&#45;&gt;O3 -->
<g id="edge54" class="edge"><title>a43&#45;&gt;O3</title>
<path fill="none" stroke="black" d="M194.355,-142.714C204.668,-133.999 219.134,-121.774 230.994,-111.752"/>
<polygon fill="black" stroke="black" points="233.326,-114.363 238.705,-105.235 228.808,-109.016 233.326,-114.363"/>
</g>
<!-- a43&#45;&gt;O4 -->
<g id="edge59" class="edge"><title>a43&#45;&gt;O4</title>
<path fill="none" stroke="black" d="M191.173,-139.672C202.877,-123.187 222.246,-95.9069 235.98,-76.563"/>
<polygon fill="black" stroke="black" points="238.911,-78.4811 241.846,-68.301 233.203,-74.4286 238.911,-78.4811"/>
</g>
<!-- a53&#45;&gt;O1 -->
<g id="edge45" class="edge"><title>a53&#45;&gt;O1</title>
<path fill="none" stroke="black" d="M194.355,-125.286C204.668,-134.001 219.134,-146.226 230.994,-156.248"/>
<polygon fill="black" stroke="black" points="228.808,-158.984 238.705,-162.765 233.326,-153.637 228.808,-158.984"/>
</g>
<!-- a53&#45;&gt;O2 -->
<g id="edge50" class="edge"><title>a53&#45;&gt;O2</title>
<path fill="none" stroke="black" d="M197.467,-118.639C205.77,-120.978 216.046,-123.872 225.43,-126.516"/>
<polygon fill="black" stroke="black" points="224.555,-129.905 235.129,-129.248 226.453,-123.167 224.555,-129.905"/>
</g>
<!-- a53&#45;&gt;O3 -->
<g id="edge55" class="edge"><title>a53&#45;&gt;O3</title>
<path fill="none" stroke="black" d="M197.467,-109.361C205.77,-107.022 216.046,-104.128 225.43,-101.484"/>
<polygon fill="black" stroke="black" points="226.453,-104.833 235.129,-98.7524 224.555,-98.095 226.453,-104.833"/>
</g>
<!-- a53&#45;&gt;O4 -->
<g id="edge60" class="edge"><title>a53&#45;&gt;O4</title>
<path fill="none" stroke="black" d="M194.355,-102.714C204.668,-93.9987 219.134,-81.7742 230.994,-71.7516"/>
<polygon fill="black" stroke="black" points="233.326,-74.3629 238.705,-65.2349 228.808,-69.0163 233.326,-74.3629"/>
</g>
</g>
</svg>
