<?xml version="1.0" encoding="UTF-8" standalone="no"?>
<!DOCTYPE svg PUBLIC "-//W3C//DTD SVG 1.1//EN"
 "http://www.w3.org/Graphics/SVG/1.1/DTD/svg11.dtd">
<!-- Generated by graphviz version 2.38.0 (20140413.2041)
 -->
<!-- Title: G Pages: 1 -->
<svg width="630pt" height="346pt"
 viewBox="0.00 0.00 630.00 346.00" xmlns="http://www.w3.org/2000/svg" xmlns:xlink="http://www.w3.org/1999/xlink">
<g id="graph0" class="graph" transform="scale(1 1) rotate(0) translate(4 342)">
<title>G</title>
<polygon fill="white" stroke="none" points="-4,4 -4,-342 626,-342 626,4 -4,4"/>
<g id="clust1" class="cluster"><title>cluster_0</title>
<polygon fill="none" stroke="white" points="0,-66 0,-272 191,-272 191,-66 0,-66"/>
<text text-anchor="middle" x="95.5" y="-256.8" font-family="Times,serif" font-size="14.00">DISTANCE INFORMATION </text>
<text text-anchor="middle" x="95.5" y="-241.8" font-family="Times,serif" font-size="14.00">84 units</text>
</g>
<g id="clust2" class="cluster"><title>cluster_1</title>
<polygon fill="none" stroke="white" points="211,-8 211,-330 328,-330 328,-8 211,-8"/>
<text text-anchor="middle" x="269.5" y="-314.8" font-family="Times,serif" font-size="14.00">HIDDEN LAYER</text>
<text text-anchor="middle" x="269.5" y="-299.8" font-family="Times,serif" font-size="14.00">32 units</text>
</g>
<g id="clust3" class="cluster"><title>cluster_2</title>
<polygon fill="none" stroke="white" points="348,-8 348,-330 465,-330 465,-8 348,-8"/>
<text text-anchor="middle" x="406.5" y="-314.8" font-family="Times,serif" font-size="14.00">HIDDEN LAYER</text>
<text text-anchor="middle" x="406.5" y="-299.8" font-family="Times,serif" font-size="14.00">32 units</text>
</g>
<g id="clust4" class="cluster"><title>cluster_3</title>
<polygon fill="none" stroke="white" points="485,-66 485,-272 622,-272 622,-66 485,-66"/>
<text text-anchor="middle" x="553.5" y="-256.8" font-family="Times,serif" font-size="14.00">OUTPUT ACTIONS</text>
<text text-anchor="middle" x="553.5" y="-241.8" font-family="Times,serif" font-size="14.00">3 units</text>
</g>
<!-- x1 -->
<g id="node1" class="node"><title>x1</title>
<ellipse fill="none" stroke="#00008b" cx="95" cy="-150" rx="18" ry="18"/>
</g>
<!-- a12 -->
<g id="node4" class="node"><title>a12</title>
<ellipse fill="none" stroke="#ee0000" cx="269" cy="-92" rx="18" ry="18"/>
</g>
<!-- x1&#45;&gt;a12 -->
<g id="edge1" class="edge"><title>x1&#45;&gt;a12</title>
<path fill="none" stroke="black" d="M112.181,-144.544C144.963,-133.489 218.886,-108.562 251.736,-97.4843"/>
</g>
<!-- a22 -->
<g id="node5" class="node"><title>a22</title>
<ellipse fill="none" stroke="#ee0000" cx="269" cy="-34" rx="18" ry="18"/>
</g>
<!-- x1&#45;&gt;a22 -->
<g id="edge2" class="edge"><title>x1&#45;&gt;a22</title>
<path fill="none" stroke="black" d="M110.369,-140.309C142.664,-118.529 220.709,-65.8942 253.308,-43.9089"/>
</g>
<!-- a32 -->
<g id="node6" class="node"><title>a32</title>
<ellipse fill="none" stroke="#ee0000" cx="269" cy="-266" rx="18" ry="18"/>
</g>
<!-- x1&#45;&gt;a32 -->
<g id="edge3" class="edge"><title>x1&#45;&gt;a32</title>
<path fill="none" stroke="black" d="M110.369,-159.691C142.664,-181.471 220.709,-234.106 253.308,-256.091"/>
</g>
<!-- a42 -->
<g id="node7" class="node"><title>a42</title>
<ellipse fill="none" stroke="#ee0000" cx="269" cy="-208" rx="18" ry="18"/>
</g>
<!-- x1&#45;&gt;a42 -->
<g id="edge4" class="edge"><title>x1&#45;&gt;a42</title>
<path fill="none" stroke="black" d="M112.181,-155.456C144.963,-166.511 218.886,-191.438 251.736,-202.516"/>
</g>
<!-- a52 -->
<g id="node8" class="node"><title>a52</title>
<ellipse fill="none" stroke="#ee0000" cx="269" cy="-150" rx="18" ry="18"/>
</g>
<!-- x1&#45;&gt;a52 -->
<g id="edge5" class="edge"><title>x1&#45;&gt;a52</title>
<path fill="none" stroke="black" d="M113.121,-150C146.09,-150 218.034,-150 250.948,-150"/>
</g>
<!-- x2 -->
<g id="node2" class="node"><title>x2</title>
<ellipse fill="none" stroke="#00008b" cx="95" cy="-92" rx="18" ry="18"/>
</g>
<!-- x2&#45;&gt;a12 -->
<g id="edge6" class="edge"><title>x2&#45;&gt;a12</title>
<path fill="none" stroke="black" d="M113.121,-92C146.09,-92 218.034,-92 250.948,-92"/>
</g>
<!-- x2&#45;&gt;a22 -->
<g id="edge7" class="edge"><title>x2&#45;&gt;a22</title>
<path fill="none" stroke="black" d="M112.181,-86.5435C144.963,-75.4892 218.886,-50.5618 251.736,-39.4843"/>
</g>
<!-- x2&#45;&gt;a32 -->
<g id="edge8" class="edge"><title>x2&#45;&gt;a32</title>
<path fill="none" stroke="black" d="M108.37,-104.514C140.105,-136.618 224.13,-221.62 255.742,-253.6"/>
</g>
<!-- x2&#45;&gt;a42 -->
<g id="edge9" class="edge"><title>x2&#45;&gt;a42</title>
<path fill="none" stroke="black" d="M110.369,-101.691C142.664,-123.471 220.709,-176.106 253.308,-198.091"/>
</g>
<!-- x2&#45;&gt;a52 -->
<g id="edge10" class="edge"><title>x2&#45;&gt;a52</title>
<path fill="none" stroke="black" d="M112.181,-97.4565C144.963,-108.511 218.886,-133.438 251.736,-144.516"/>
</g>
<!-- x3 -->
<g id="node3" class="node"><title>x3</title>
<ellipse fill="none" stroke="#00008b" cx="95" cy="-208" rx="18" ry="18"/>
</g>
<!-- x3&#45;&gt;a12 -->
<g id="edge11" class="edge"><title>x3&#45;&gt;a12</title>
<path fill="none" stroke="black" d="M110.369,-198.309C142.664,-176.529 220.709,-123.894 253.308,-101.909"/>
</g>
<!-- x3&#45;&gt;a22 -->
<g id="edge12" class="edge"><title>x3&#45;&gt;a22</title>
<path fill="none" stroke="black" d="M108.37,-195.486C140.105,-163.382 224.13,-78.3796 255.742,-46.4003"/>
</g>
<!-- x3&#45;&gt;a32 -->
<g id="edge13" class="edge"><title>x3&#45;&gt;a32</title>
<path fill="none" stroke="black" d="M112.181,-213.456C144.963,-224.511 218.886,-249.438 251.736,-260.516"/>
</g>
<!-- x3&#45;&gt;a42 -->
<g id="edge14" class="edge"><title>x3&#45;&gt;a42</title>
<path fill="none" stroke="black" d="M113.121,-208C146.09,-208 218.034,-208 250.948,-208"/>
</g>
<!-- x3&#45;&gt;a52 -->
<g id="edge15" class="edge"><title>x3&#45;&gt;a52</title>
<path fill="none" stroke="black" d="M112.181,-202.544C144.963,-191.489 218.886,-166.562 251.736,-155.484"/>
</g>
<!-- a13 -->
<g id="node9" class="node"><title>a13</title>
<ellipse fill="none" stroke="#ee0000" cx="406" cy="-92" rx="18" ry="18"/>
</g>
<!-- a12&#45;&gt;a13 -->
<g id="edge16" class="edge"><title>a12&#45;&gt;a13</title>
<path fill="none" stroke="black" d="M287.098,-92C312.924,-92 361.62,-92 387.615,-92"/>
</g>
<!-- a23 -->
<g id="node10" class="node"><title>a23</title>
<ellipse fill="none" stroke="#ee0000" cx="406" cy="-34" rx="18" ry="18"/>
</g>
<!-- a12&#45;&gt;a23 -->
<g id="edge21" class="edge"><title>a12&#45;&gt;a23</title>
<path fill="none" stroke="black" d="M285.75,-85.2332C311.624,-74.1169 362.851,-52.1083 388.931,-40.9035"/>
</g>
<!-- a33 -->
<g id="node11" class="node"><title>a33</title>
<ellipse fill="none" stroke="#ee0000" cx="406" cy="-266" rx="18" ry="18"/>
</g>
<!-- a12&#45;&gt;a33 -->
<g id="edge26" class="edge"><title>a12&#45;&gt;a33</title>
<path fill="none" stroke="black" d="M280.819,-105.945C306.097,-138.525 368.801,-219.343 394.129,-251.989"/>
</g>
<!-- a43 -->
<g id="node12" class="node"><title>a43</title>
<ellipse fill="none" stroke="#ee0000" cx="406" cy="-208" rx="18" ry="18"/>
</g>
<!-- a12&#45;&gt;a43 -->
<g id="edge31" class="edge"><title>a12&#45;&gt;a43</title>
<path fill="none" stroke="black" d="M283.438,-103.547C309.315,-125.781 365.783,-174.302 391.616,-196.5"/>
</g>
<!-- a53 -->
<g id="node13" class="node"><title>a53</title>
<ellipse fill="none" stroke="#ee0000" cx="406" cy="-150" rx="18" ry="18"/>
</g>
<!-- a12&#45;&gt;a53 -->
<g id="edge36" class="edge"><title>a12&#45;&gt;a53</title>
<path fill="none" stroke="black" d="M285.75,-98.7668C311.624,-109.883 362.851,-131.892 388.931,-143.096"/>
</g>
<!-- a22&#45;&gt;a13 -->
<g id="edge17" class="edge"><title>a22&#45;&gt;a13</title>
<path fill="none" stroke="black" d="M285.75,-40.7668C311.624,-51.8831 362.851,-73.8917 388.931,-85.0965"/>
</g>
<!-- a22&#45;&gt;a23 -->
<g id="edge22" class="edge"><title>a22&#45;&gt;a23</title>
<path fill="none" stroke="black" d="M287.098,-34C312.924,-34 361.62,-34 387.615,-34"/>
</g>
<!-- a22&#45;&gt;a33 -->
<g id="edge27" class="edge"><title>a22&#45;&gt;a33</title>
<path fill="none" stroke="black" d="M278.858,-49.2222C303.319,-91.2592 371.61,-208.618 396.11,-250.722"/>
</g>
<!-- a22&#45;&gt;a43 -->
<g id="edge32" class="edge"><title>a22&#45;&gt;a43</title>
<path fill="none" stroke="black" d="M280.819,-47.945C306.097,-80.5251 368.801,-161.343 394.129,-193.989"/>
</g>
<!-- a22&#45;&gt;a53 -->
<g id="edge37" class="edge"><title>a22&#45;&gt;a53</title>
<path fill="none" stroke="black" d="M283.438,-45.5466C309.315,-67.7815 365.783,-116.302 391.616,-138.5"/>
</g>
<!-- a32&#45;&gt;a13 -->
<g id="edge18" class="edge"><title>a32&#45;&gt;a13</title>
<path fill="none" stroke="black" d="M280.819,-252.055C306.097,-219.475 368.801,-138.657 394.129,-106.011"/>
</g>
<!-- a32&#45;&gt;a23 -->
<g id="edge23" class="edge"><title>a32&#45;&gt;a23</title>
<path fill="none" stroke="black" d="M278.858,-250.778C303.319,-208.741 371.61,-91.3821 396.11,-49.2782"/>
</g>
<!-- a32&#45;&gt;a33 -->
<g id="edge28" class="edge"><title>a32&#45;&gt;a33</title>
<path fill="none" stroke="black" d="M287.098,-266C312.924,-266 361.62,-266 387.615,-266"/>
</g>
<!-- a32&#45;&gt;a43 -->
<g id="edge33" class="edge"><title>a32&#45;&gt;a43</title>
<path fill="none" stroke="black" d="M285.75,-259.233C311.624,-248.117 362.851,-226.108 388.931,-214.904"/>
</g>
<!-- a32&#45;&gt;a53 -->
<g id="edge38" class="edge"><title>a32&#45;&gt;a53</title>
<path fill="none" stroke="black" d="M283.438,-254.453C309.315,-232.219 365.783,-183.698 391.616,-161.5"/>
</g>
<!-- a42&#45;&gt;a13 -->
<g id="edge19" class="edge"><title>a42&#45;&gt;a13</title>
<path fill="none" stroke="black" d="M283.438,-196.453C309.315,-174.219 365.783,-125.698 391.616,-103.5"/>
</g>
<!-- a42&#45;&gt;a23 -->
<g id="edge24" class="edge"><title>a42&#45;&gt;a23</title>
<path fill="none" stroke="black" d="M280.819,-194.055C306.097,-161.475 368.801,-80.6569 394.129,-48.0114"/>
</g>
<!-- a42&#45;&gt;a33 -->
<g id="edge29" class="edge"><title>a42&#45;&gt;a33</title>
<path fill="none" stroke="black" d="M285.75,-214.767C311.624,-225.883 362.851,-247.892 388.931,-259.096"/>
</g>
<!-- a42&#45;&gt;a43 -->
<g id="edge34" class="edge"><title>a42&#45;&gt;a43</title>
<path fill="none" stroke="black" d="M287.098,-208C312.924,-208 361.62,-208 387.615,-208"/>
</g>
<!-- a42&#45;&gt;a53 -->
<g id="edge39" class="edge"><title>a42&#45;&gt;a53</title>
<path fill="none" stroke="black" d="M285.75,-201.233C311.624,-190.117 362.851,-168.108 388.931,-156.904"/>
</g>
<!-- a52&#45;&gt;a13 -->
<g id="edge20" class="edge"><title>a52&#45;&gt;a13</title>
<path fill="none" stroke="black" d="M285.75,-143.233C311.624,-132.117 362.851,-110.108 388.931,-98.9035"/>
</g>
<!-- a52&#45;&gt;a23 -->
<g id="edge25" class="edge"><title>a52&#45;&gt;a23</title>
<path fill="none" stroke="black" d="M283.438,-138.453C309.315,-116.219 365.783,-67.6979 391.616,-45.4999"/>
</g>
<!-- a52&#45;&gt;a33 -->
<g id="edge30" class="edge"><title>a52&#45;&gt;a33</title>
<path fill="none" stroke="black" d="M283.438,-161.547C309.315,-183.781 365.783,-232.302 391.616,-254.5"/>
</g>
<!-- a52&#45;&gt;a43 -->
<g id="edge35" class="edge"><title>a52&#45;&gt;a43</title>
<path fill="none" stroke="black" d="M285.75,-156.767C311.624,-167.883 362.851,-189.892 388.931,-201.096"/>
</g>
<!-- a52&#45;&gt;a53 -->
<g id="edge40" class="edge"><title>a52&#45;&gt;a53</title>
<path fill="none" stroke="black" d="M287.098,-150C312.924,-150 361.62,-150 387.615,-150"/>
</g>
<!-- LEFT -->
<g id="node14" class="node"><title>LEFT</title>
<ellipse fill="none" stroke="#4eee94" cx="553" cy="-92" rx="18" ry="18"/>
<text text-anchor="middle" x="553" y="-88.3" font-family="Times,serif" font-size="14.00">LEFT</text>
</g>
<!-- a13&#45;&gt;LEFT -->
<g id="edge41" class="edge"><title>a13&#45;&gt;LEFT</title>
<path fill="none" stroke="black" d="M424.203,-92C452.109,-92 506.927,-92 534.82,-92"/>
</g>
<!-- FORWARD -->
<g id="node15" class="node"><title>FORWARD</title>
<ellipse fill="none" stroke="#4eee94" cx="553" cy="-208" rx="18" ry="18"/>
<text text-anchor="middle" x="553" y="-204.3" font-family="Times,serif" font-size="14.00">FORWARD</text>
</g>
<!-- a13&#45;&gt;FORWARD -->
<g id="edge51" class="edge"><title>a13&#45;&gt;FORWARD</title>
<path fill="none" stroke="black" d="M420.641,-102.913C448.277,-125.022 510.596,-174.876 538.289,-197.031"/>
</g>
<!-- RIGHT -->
<g id="node16" class="node"><title>RIGHT</title>
<ellipse fill="none" stroke="#4eee94" cx="553" cy="-150" rx="18" ry="18"/>
<text text-anchor="middle" x="553" y="-146.3" font-family="Times,serif" font-size="14.00">RIGHT</text>
</g>
<!-- a13&#45;&gt;RIGHT -->
<g id="edge46" class="edge"><title>a13&#45;&gt;RIGHT</title>
<path fill="none" stroke="black" d="M423.072,-98.4286C450.944,-109.577 507.934,-132.374 535.856,-143.543"/>
</g>
<!-- a23&#45;&gt;LEFT -->
<g id="edge42" class="edge"><title>a23&#45;&gt;LEFT</title>
<path fill="none" stroke="black" d="M423.072,-40.4286C450.944,-51.5774 507.934,-74.3738 535.856,-85.5426"/>
</g>
<!-- a23&#45;&gt;FORWARD -->
<g id="edge52" class="edge"><title>a23&#45;&gt;FORWARD</title>
<path fill="none" stroke="black" d="M418.137,-47.3646C445.061,-79.6735 513.458,-161.75 540.625,-194.35"/>
</g>
<!-- a23&#45;&gt;RIGHT -->
<g id="edge47" class="edge"><title>a23&#45;&gt;RIGHT</title>
<path fill="none" stroke="black" d="M420.641,-44.913C448.277,-67.0216 510.596,-116.876 538.289,-139.031"/>
</g>
<!-- a33&#45;&gt;LEFT -->
<g id="edge43" class="edge"><title>a33&#45;&gt;LEFT</title>
<path fill="none" stroke="black" d="M418.137,-252.635C445.061,-220.327 513.458,-138.25 540.625,-105.65"/>
</g>
<!-- a33&#45;&gt;FORWARD -->
<g id="edge53" class="edge"><title>a33&#45;&gt;FORWARD</title>
<path fill="none" stroke="black" d="M423.072,-259.571C450.944,-248.423 507.934,-225.626 535.856,-214.457"/>
</g>
<!-- a33&#45;&gt;RIGHT -->
<g id="edge48" class="edge"><title>a33&#45;&gt;RIGHT</title>
<path fill="none" stroke="black" d="M420.641,-255.087C448.277,-232.978 510.596,-183.124 538.289,-160.969"/>
</g>
<!-- a43&#45;&gt;LEFT -->
<g id="edge44" class="edge"><title>a43&#45;&gt;LEFT</title>
<path fill="none" stroke="black" d="M420.641,-197.087C448.277,-174.978 510.596,-125.124 538.289,-102.969"/>
</g>
<!-- a43&#45;&gt;FORWARD -->
<g id="edge54" class="edge"><title>a43&#45;&gt;FORWARD</title>
<path fill="none" stroke="black" d="M424.203,-208C452.109,-208 506.927,-208 534.82,-208"/>
</g>
<!-- a43&#45;&gt;RIGHT -->
<g id="edge49" class="edge"><title>a43&#45;&gt;RIGHT</title>
<path fill="none" stroke="black" d="M423.072,-201.571C450.944,-190.423 507.934,-167.626 535.856,-156.457"/>
</g>
<!-- a53&#45;&gt;LEFT -->
<g id="edge45" class="edge"><title>a53&#45;&gt;LEFT</title>
<path fill="none" stroke="black" d="M423.072,-143.571C450.944,-132.423 507.934,-109.626 535.856,-98.4574"/>
</g>
<!-- a53&#45;&gt;FORWARD -->
<g id="edge55" class="edge"><title>a53&#45;&gt;FORWARD</title>
<path fill="none" stroke="black" d="M423.072,-156.429C450.944,-167.577 507.934,-190.374 535.856,-201.543"/>
</g>
<!-- a53&#45;&gt;RIGHT -->
<g id="edge50" class="edge"><title>a53&#45;&gt;RIGHT</title>
<path fill="none" stroke="black" d="M424.203,-150C452.109,-150 506.927,-150 534.82,-150"/>
</g>
</g>
</svg>
