<?xml version="1.0" encoding="UTF-8" standalone="no"?>
<!DOCTYPE svg PUBLIC "-//W3C//DTD SVG 1.1//EN"
 "http://www.w3.org/Graphics/SVG/1.1/DTD/svg11.dtd">
<!-- Generated by graphviz version 2.38.0 (20140413.2041)
 -->
<!-- Title: G Pages: 1 -->
<svg width="627pt" height="331pt"
 viewBox="0.00 0.00 627.00 331.00" xmlns="http://www.w3.org/2000/svg" xmlns:xlink="http://www.w3.org/1999/xlink">
<g id="graph0" class="graph" transform="scale(1 1) rotate(0) translate(4 327)">
<title>G</title>
<polygon fill="white" stroke="none" points="-4,4 -4,-327 623,-327 623,4 -4,4"/>
<g id="clust1" class="cluster"><title>cluster_0</title>
<polygon fill="none" stroke="white" points="0,-66 0,-257 188,-257 188,-66 0,-66"/>
<text text-anchor="middle" x="94" y="-241.8" font-family="Times,serif" font-size="14.00">DISTANCE INFORMATION</text>
</g>
<g id="clust2" class="cluster"><title>cluster_1</title>
<polygon fill="none" stroke="white" points="208,-8 208,-315 325,-315 325,-8 208,-8"/>
<text text-anchor="middle" x="266.5" y="-299.8" font-family="Times,serif" font-size="14.00">HIDDEN LAYER</text>
</g>
<g id="clust3" class="cluster"><title>cluster_2</title>
<polygon fill="none" stroke="white" points="345,-8 345,-315 462,-315 462,-8 345,-8"/>
<text text-anchor="middle" x="403.5" y="-299.8" font-family="Times,serif" font-size="14.00">HIDDEN LAYER</text>
</g>
<g id="clust4" class="cluster"><title>cluster_3</title>
<polygon fill="none" stroke="white" points="482,-66 482,-257 619,-257 619,-66 482,-66"/>
<text text-anchor="middle" x="550.5" y="-241.8" font-family="Times,serif" font-size="14.00">OUTPUT ACTIONS</text>
</g>
<!-- x1 -->
<g id="node1" class="node"><title>x1</title>
<ellipse fill="none" stroke="#00008b" cx="94" cy="-150" rx="18" ry="18"/>
</g>
<!-- a12 -->
<g id="node4" class="node"><title>a12</title>
<ellipse fill="none" stroke="#ee0000" cx="266" cy="-92" rx="18" ry="18"/>
</g>
<!-- x1&#45;&gt;a12 -->
<g id="edge1" class="edge"><title>x1&#45;&gt;a12</title>
<path fill="none" stroke="black" d="M111.3,-144.439C140.875,-134.349 203.591,-112.951 239.09,-100.84"/>
<polygon fill="black" stroke="black" points="240.415,-104.086 248.749,-97.5444 238.155,-97.461 240.415,-104.086"/>
</g>
<!-- a22 -->
<g id="node5" class="node"><title>a22</title>
<ellipse fill="none" stroke="#ee0000" cx="266" cy="-34" rx="18" ry="18"/>
</g>
<!-- x1&#45;&gt;a22 -->
<g id="edge2" class="edge"><title>x1&#45;&gt;a22</title>
<path fill="none" stroke="black" d="M109.202,-140.309C138.628,-120.23 206.482,-73.93 242.147,-49.5936"/>
<polygon fill="black" stroke="black" points="244.191,-52.4364 250.478,-43.9089 240.245,-46.6542 244.191,-52.4364"/>
</g>
<!-- a32 -->
<g id="node6" class="node"><title>a32</title>
<ellipse fill="none" stroke="#ee0000" cx="266" cy="-266" rx="18" ry="18"/>
</g>
<!-- x1&#45;&gt;a32 -->
<g id="edge3" class="edge"><title>x1&#45;&gt;a32</title>
<path fill="none" stroke="black" d="M109.202,-159.691C138.628,-179.77 206.482,-226.07 242.147,-250.406"/>
<polygon fill="black" stroke="black" points="240.245,-253.346 250.478,-256.091 244.191,-247.564 240.245,-253.346"/>
</g>
<!-- a42 -->
<g id="node7" class="node"><title>a42</title>
<ellipse fill="none" stroke="#ee0000" cx="266" cy="-208" rx="18" ry="18"/>
</g>
<!-- x1&#45;&gt;a42 -->
<g id="edge4" class="edge"><title>x1&#45;&gt;a42</title>
<path fill="none" stroke="black" d="M111.3,-155.561C140.875,-165.651 203.591,-187.049 239.09,-199.16"/>
<polygon fill="black" stroke="black" points="238.155,-202.539 248.749,-202.456 240.415,-195.914 238.155,-202.539"/>
</g>
<!-- a52 -->
<g id="node8" class="node"><title>a52</title>
<ellipse fill="none" stroke="#ee0000" cx="266" cy="-150" rx="18" ry="18"/>
</g>
<!-- x1&#45;&gt;a52 -->
<g id="edge5" class="edge"><title>x1&#45;&gt;a52</title>
<path fill="none" stroke="black" d="M112.236,-150C141.841,-150 202.567,-150 237.888,-150"/>
<polygon fill="black" stroke="black" points="237.971,-153.5 247.971,-150 237.971,-146.5 237.971,-153.5"/>
</g>
<!-- x2 -->
<g id="node2" class="node"><title>x2</title>
<ellipse fill="none" stroke="#00008b" cx="94" cy="-92" rx="18" ry="18"/>
</g>
<!-- x2&#45;&gt;a12 -->
<g id="edge6" class="edge"><title>x2&#45;&gt;a12</title>
<path fill="none" stroke="black" d="M112.236,-92C141.841,-92 202.567,-92 237.888,-92"/>
<polygon fill="black" stroke="black" points="237.971,-95.5001 247.971,-92 237.971,-88.5001 237.971,-95.5001"/>
</g>
<!-- x2&#45;&gt;a22 -->
<g id="edge7" class="edge"><title>x2&#45;&gt;a22</title>
<path fill="none" stroke="black" d="M111.3,-86.4387C140.875,-76.3486 203.591,-54.9513 239.09,-42.8398"/>
<polygon fill="black" stroke="black" points="240.415,-46.086 248.749,-39.5444 238.155,-39.461 240.415,-46.086"/>
</g>
<!-- x2&#45;&gt;a32 -->
<g id="edge8" class="edge"><title>x2&#45;&gt;a32</title>
<path fill="none" stroke="black" d="M107.226,-104.514C136.387,-134.361 210.217,-209.928 245.562,-246.104"/>
<polygon fill="black" stroke="black" points="243.393,-248.893 252.885,-253.6 248.4,-244.001 243.393,-248.893"/>
</g>
<!-- x2&#45;&gt;a42 -->
<g id="edge9" class="edge"><title>x2&#45;&gt;a42</title>
<path fill="none" stroke="black" d="M109.202,-101.691C138.628,-121.77 206.482,-168.07 242.147,-192.406"/>
<polygon fill="black" stroke="black" points="240.245,-195.346 250.478,-198.091 244.191,-189.564 240.245,-195.346"/>
</g>
<!-- x2&#45;&gt;a52 -->
<g id="edge10" class="edge"><title>x2&#45;&gt;a52</title>
<path fill="none" stroke="black" d="M111.3,-97.5613C140.875,-107.651 203.591,-129.049 239.09,-141.16"/>
<polygon fill="black" stroke="black" points="238.155,-144.539 248.749,-144.456 240.415,-137.914 238.155,-144.539"/>
</g>
<!-- x3 -->
<g id="node3" class="node"><title>x3</title>
<ellipse fill="none" stroke="#00008b" cx="94" cy="-208" rx="18" ry="18"/>
</g>
<!-- x3&#45;&gt;a12 -->
<g id="edge11" class="edge"><title>x3&#45;&gt;a12</title>
<path fill="none" stroke="black" d="M109.202,-198.309C138.628,-178.23 206.482,-131.93 242.147,-107.594"/>
<polygon fill="black" stroke="black" points="244.191,-110.436 250.478,-101.909 240.245,-104.654 244.191,-110.436"/>
</g>
<!-- x3&#45;&gt;a22 -->
<g id="edge12" class="edge"><title>x3&#45;&gt;a22</title>
<path fill="none" stroke="black" d="M107.226,-195.486C136.387,-165.639 210.217,-90.0716 245.562,-53.8955"/>
<polygon fill="black" stroke="black" points="248.4,-55.999 252.885,-46.4003 243.393,-51.1072 248.4,-55.999"/>
</g>
<!-- x3&#45;&gt;a32 -->
<g id="edge13" class="edge"><title>x3&#45;&gt;a32</title>
<path fill="none" stroke="black" d="M111.3,-213.561C140.875,-223.651 203.591,-245.049 239.09,-257.16"/>
<polygon fill="black" stroke="black" points="238.155,-260.539 248.749,-260.456 240.415,-253.914 238.155,-260.539"/>
</g>
<!-- x3&#45;&gt;a42 -->
<g id="edge14" class="edge"><title>x3&#45;&gt;a42</title>
<path fill="none" stroke="black" d="M112.236,-208C141.841,-208 202.567,-208 237.888,-208"/>
<polygon fill="black" stroke="black" points="237.971,-211.5 247.971,-208 237.971,-204.5 237.971,-211.5"/>
</g>
<!-- x3&#45;&gt;a52 -->
<g id="edge15" class="edge"><title>x3&#45;&gt;a52</title>
<path fill="none" stroke="black" d="M111.3,-202.439C140.875,-192.349 203.591,-170.951 239.09,-158.84"/>
<polygon fill="black" stroke="black" points="240.415,-162.086 248.749,-155.544 238.155,-155.461 240.415,-162.086"/>
</g>
<!-- a13 -->
<g id="node9" class="node"><title>a13</title>
<ellipse fill="none" stroke="#ee0000" cx="403" cy="-92" rx="18" ry="18"/>
</g>
<!-- a12&#45;&gt;a13 -->
<g id="edge16" class="edge"><title>a12&#45;&gt;a13</title>
<path fill="none" stroke="black" d="M284.098,-92C306.897,-92 347.521,-92 374.614,-92"/>
<polygon fill="black" stroke="black" points="374.615,-95.5001 384.615,-92 374.615,-88.5001 374.615,-95.5001"/>
</g>
<!-- a23 -->
<g id="node10" class="node"><title>a23</title>
<ellipse fill="none" stroke="#ee0000" cx="403" cy="-34" rx="18" ry="18"/>
</g>
<!-- a12&#45;&gt;a23 -->
<g id="edge21" class="edge"><title>a12&#45;&gt;a23</title>
<path fill="none" stroke="black" d="M282.75,-85.2332C305.794,-75.3328 348.949,-56.7924 376.537,-44.9395"/>
<polygon fill="black" stroke="black" points="378.125,-48.0668 385.931,-40.9035 375.362,-41.6352 378.125,-48.0668"/>
</g>
<!-- a33 -->
<g id="node11" class="node"><title>a33</title>
<ellipse fill="none" stroke="#ee0000" cx="403" cy="-266" rx="18" ry="18"/>
</g>
<!-- a12&#45;&gt;a33 -->
<g id="edge26" class="edge"><title>a12&#45;&gt;a33</title>
<path fill="none" stroke="black" d="M277.819,-105.945C301.221,-136.107 356.699,-207.612 384.902,-243.963"/>
<polygon fill="black" stroke="black" points="382.234,-246.233 391.129,-251.989 387.764,-241.942 382.234,-246.233"/>
</g>
<!-- a43 -->
<g id="node12" class="node"><title>a43</title>
<ellipse fill="none" stroke="#ee0000" cx="403" cy="-208" rx="18" ry="18"/>
</g>
<!-- a12&#45;&gt;a43 -->
<g id="edge31" class="edge"><title>a12&#45;&gt;a43</title>
<path fill="none" stroke="black" d="M280.438,-103.547C303.99,-123.784 352.883,-165.796 380.956,-189.918"/>
<polygon fill="black" stroke="black" points="378.751,-192.638 388.616,-196.5 383.313,-187.328 378.751,-192.638"/>
</g>
<!-- a53 -->
<g id="node13" class="node"><title>a53</title>
<ellipse fill="none" stroke="#ee0000" cx="403" cy="-150" rx="18" ry="18"/>
</g>
<!-- a12&#45;&gt;a53 -->
<g id="edge36" class="edge"><title>a12&#45;&gt;a53</title>
<path fill="none" stroke="black" d="M282.75,-98.7668C305.794,-108.667 348.949,-127.208 376.537,-139.061"/>
<polygon fill="black" stroke="black" points="375.362,-142.365 385.931,-143.096 378.125,-135.933 375.362,-142.365"/>
</g>
<!-- a22&#45;&gt;a13 -->
<g id="edge17" class="edge"><title>a22&#45;&gt;a13</title>
<path fill="none" stroke="black" d="M282.75,-40.7668C305.794,-50.6672 348.949,-69.2076 376.537,-81.0605"/>
<polygon fill="black" stroke="black" points="375.362,-84.3648 385.931,-85.0965 378.125,-77.9332 375.362,-84.3648"/>
</g>
<!-- a22&#45;&gt;a23 -->
<g id="edge22" class="edge"><title>a22&#45;&gt;a23</title>
<path fill="none" stroke="black" d="M284.098,-34C306.897,-34 347.521,-34 374.614,-34"/>
<polygon fill="black" stroke="black" points="374.615,-37.5001 384.615,-34 374.615,-30.5001 374.615,-37.5001"/>
</g>
<!-- a22&#45;&gt;a33 -->
<g id="edge27" class="edge"><title>a22&#45;&gt;a33</title>
<path fill="none" stroke="black" d="M275.858,-49.2222C298.79,-88.6319 360.244,-194.242 388.024,-241.982"/>
<polygon fill="black" stroke="black" points="385.055,-243.839 393.11,-250.722 391.105,-240.318 385.055,-243.839"/>
</g>
<!-- a22&#45;&gt;a43 -->
<g id="edge32" class="edge"><title>a22&#45;&gt;a43</title>
<path fill="none" stroke="black" d="M277.819,-47.945C301.221,-78.107 356.699,-149.612 384.902,-185.963"/>
<polygon fill="black" stroke="black" points="382.234,-188.233 391.129,-193.989 387.764,-183.942 382.234,-188.233"/>
</g>
<!-- a22&#45;&gt;a53 -->
<g id="edge37" class="edge"><title>a22&#45;&gt;a53</title>
<path fill="none" stroke="black" d="M280.438,-45.5466C303.99,-65.7838 352.883,-107.796 380.956,-131.918"/>
<polygon fill="black" stroke="black" points="378.751,-134.638 388.616,-138.5 383.313,-129.328 378.751,-134.638"/>
</g>
<!-- a32&#45;&gt;a13 -->
<g id="edge18" class="edge"><title>a32&#45;&gt;a13</title>
<path fill="none" stroke="black" d="M277.819,-252.055C301.221,-221.893 356.699,-150.388 384.902,-114.037"/>
<polygon fill="black" stroke="black" points="387.764,-116.058 391.129,-106.011 382.234,-111.767 387.764,-116.058"/>
</g>
<!-- a32&#45;&gt;a23 -->
<g id="edge23" class="edge"><title>a32&#45;&gt;a23</title>
<path fill="none" stroke="black" d="M275.858,-250.778C298.79,-211.368 360.244,-105.758 388.024,-58.0178"/>
<polygon fill="black" stroke="black" points="391.105,-59.6817 393.11,-49.2782 385.055,-56.1611 391.105,-59.6817"/>
</g>
<!-- a32&#45;&gt;a33 -->
<g id="edge28" class="edge"><title>a32&#45;&gt;a33</title>
<path fill="none" stroke="black" d="M284.098,-266C306.897,-266 347.521,-266 374.614,-266"/>
<polygon fill="black" stroke="black" points="374.615,-269.5 384.615,-266 374.615,-262.5 374.615,-269.5"/>
</g>
<!-- a32&#45;&gt;a43 -->
<g id="edge33" class="edge"><title>a32&#45;&gt;a43</title>
<path fill="none" stroke="black" d="M282.75,-259.233C305.794,-249.333 348.949,-230.792 376.537,-218.939"/>
<polygon fill="black" stroke="black" points="378.125,-222.067 385.931,-214.904 375.362,-215.635 378.125,-222.067"/>
</g>
<!-- a32&#45;&gt;a53 -->
<g id="edge38" class="edge"><title>a32&#45;&gt;a53</title>
<path fill="none" stroke="black" d="M280.438,-254.453C303.99,-234.216 352.883,-192.204 380.956,-168.082"/>
<polygon fill="black" stroke="black" points="383.313,-170.672 388.616,-161.5 378.751,-165.362 383.313,-170.672"/>
</g>
<!-- a42&#45;&gt;a13 -->
<g id="edge19" class="edge"><title>a42&#45;&gt;a13</title>
<path fill="none" stroke="black" d="M280.438,-196.453C303.99,-176.216 352.883,-134.204 380.956,-110.082"/>
<polygon fill="black" stroke="black" points="383.313,-112.672 388.616,-103.5 378.751,-107.362 383.313,-112.672"/>
</g>
<!-- a42&#45;&gt;a23 -->
<g id="edge24" class="edge"><title>a42&#45;&gt;a23</title>
<path fill="none" stroke="black" d="M277.819,-194.055C301.221,-163.893 356.699,-92.3876 384.902,-56.0368"/>
<polygon fill="black" stroke="black" points="387.764,-58.0578 391.129,-48.0114 382.234,-53.7668 387.764,-58.0578"/>
</g>
<!-- a42&#45;&gt;a33 -->
<g id="edge29" class="edge"><title>a42&#45;&gt;a33</title>
<path fill="none" stroke="black" d="M282.75,-214.767C305.794,-224.667 348.949,-243.208 376.537,-255.061"/>
<polygon fill="black" stroke="black" points="375.362,-258.365 385.931,-259.096 378.125,-251.933 375.362,-258.365"/>
</g>
<!-- a42&#45;&gt;a43 -->
<g id="edge34" class="edge"><title>a42&#45;&gt;a43</title>
<path fill="none" stroke="black" d="M284.098,-208C306.897,-208 347.521,-208 374.614,-208"/>
<polygon fill="black" stroke="black" points="374.615,-211.5 384.615,-208 374.615,-204.5 374.615,-211.5"/>
</g>
<!-- a42&#45;&gt;a53 -->
<g id="edge39" class="edge"><title>a42&#45;&gt;a53</title>
<path fill="none" stroke="black" d="M282.75,-201.233C305.794,-191.333 348.949,-172.792 376.537,-160.939"/>
<polygon fill="black" stroke="black" points="378.125,-164.067 385.931,-156.904 375.362,-157.635 378.125,-164.067"/>
</g>
<!-- a52&#45;&gt;a13 -->
<g id="edge20" class="edge"><title>a52&#45;&gt;a13</title>
<path fill="none" stroke="black" d="M282.75,-143.233C305.794,-133.333 348.949,-114.792 376.537,-102.939"/>
<polygon fill="black" stroke="black" points="378.125,-106.067 385.931,-98.9035 375.362,-99.6352 378.125,-106.067"/>
</g>
<!-- a52&#45;&gt;a23 -->
<g id="edge25" class="edge"><title>a52&#45;&gt;a23</title>
<path fill="none" stroke="black" d="M280.438,-138.453C303.99,-118.216 352.883,-76.2043 380.956,-52.0822"/>
<polygon fill="black" stroke="black" points="383.313,-54.6717 388.616,-45.4999 378.751,-49.3625 383.313,-54.6717"/>
</g>
<!-- a52&#45;&gt;a33 -->
<g id="edge30" class="edge"><title>a52&#45;&gt;a33</title>
<path fill="none" stroke="black" d="M280.438,-161.547C303.99,-181.784 352.883,-223.796 380.956,-247.918"/>
<polygon fill="black" stroke="black" points="378.751,-250.638 388.616,-254.5 383.313,-245.328 378.751,-250.638"/>
</g>
<!-- a52&#45;&gt;a43 -->
<g id="edge35" class="edge"><title>a52&#45;&gt;a43</title>
<path fill="none" stroke="black" d="M282.75,-156.767C305.794,-166.667 348.949,-185.208 376.537,-197.061"/>
<polygon fill="black" stroke="black" points="375.362,-200.365 385.931,-201.096 378.125,-193.933 375.362,-200.365"/>
</g>
<!-- a52&#45;&gt;a53 -->
<g id="edge40" class="edge"><title>a52&#45;&gt;a53</title>
<path fill="none" stroke="black" d="M284.098,-150C306.897,-150 347.521,-150 374.614,-150"/>
<polygon fill="black" stroke="black" points="374.615,-153.5 384.615,-150 374.615,-146.5 374.615,-153.5"/>
</g>
<!-- LEFT -->
<g id="node14" class="node"><title>LEFT</title>
<ellipse fill="none" stroke="#4eee94" cx="550" cy="-92" rx="18" ry="18"/>
<text text-anchor="middle" x="550" y="-88.3" font-family="Times,serif" font-size="14.00">LEFT</text>
</g>
<!-- a13&#45;&gt;LEFT -->
<g id="edge41" class="edge"><title>a13&#45;&gt;LEFT</title>
<path fill="none" stroke="black" d="M421.203,-92C446.057,-92 492.258,-92 521.772,-92"/>
<polygon fill="black" stroke="black" points="521.82,-95.5001 531.82,-92 521.82,-88.5001 521.82,-95.5001"/>
</g>
<!-- FORWARD -->
<g id="node15" class="node"><title>FORWARD</title>
<ellipse fill="none" stroke="#4eee94" cx="550" cy="-208" rx="18" ry="18"/>
<text text-anchor="middle" x="550" y="-204.3" font-family="Times,serif" font-size="14.00">FORWARD</text>
</g>
<!-- a13&#45;&gt;FORWARD -->
<g id="edge51" class="edge"><title>a13&#45;&gt;FORWARD</title>
<path fill="none" stroke="black" d="M417.641,-102.913C442.902,-123.122 497.141,-166.513 527.426,-190.741"/>
<polygon fill="black" stroke="black" points="525.294,-193.518 535.289,-197.031 529.667,-188.051 525.294,-193.518"/>
</g>
<!-- RIGHT -->
<g id="node16" class="node"><title>RIGHT</title>
<ellipse fill="none" stroke="#4eee94" cx="550" cy="-150" rx="18" ry="18"/>
<text text-anchor="middle" x="550" y="-146.3" font-family="Times,serif" font-size="14.00">RIGHT</text>
</g>
<!-- a13&#45;&gt;RIGHT -->
<g id="edge46" class="edge"><title>a13&#45;&gt;RIGHT</title>
<path fill="none" stroke="black" d="M420.072,-98.4286C445.113,-108.445 493.659,-127.863 523.51,-139.804"/>
<polygon fill="black" stroke="black" points="522.272,-143.078 532.856,-143.543 524.872,-136.579 522.272,-143.078"/>
</g>
<!-- a23&#45;&gt;LEFT -->
<g id="edge42" class="edge"><title>a23&#45;&gt;LEFT</title>
<path fill="none" stroke="black" d="M420.072,-40.4286C445.113,-50.4451 493.659,-69.8634 523.51,-81.8042"/>
<polygon fill="black" stroke="black" points="522.272,-85.0783 532.856,-85.5426 524.872,-78.5789 522.272,-85.0783"/>
</g>
<!-- a23&#45;&gt;FORWARD -->
<g id="edge52" class="edge"><title>a23&#45;&gt;FORWARD</title>
<path fill="none" stroke="black" d="M415.137,-47.3646C440.063,-77.2756 500.534,-149.841 530.929,-186.314"/>
<polygon fill="black" stroke="black" points="528.534,-188.908 537.625,-194.35 533.912,-184.427 528.534,-188.908"/>
</g>
<!-- a23&#45;&gt;RIGHT -->
<g id="edge47" class="edge"><title>a23&#45;&gt;RIGHT</title>
<path fill="none" stroke="black" d="M417.641,-44.913C442.902,-65.1217 497.141,-108.513 527.426,-132.741"/>
<polygon fill="black" stroke="black" points="525.294,-135.518 535.289,-139.031 529.667,-130.051 525.294,-135.518"/>
</g>
<!-- a33&#45;&gt;LEFT -->
<g id="edge43" class="edge"><title>a33&#45;&gt;LEFT</title>
<path fill="none" stroke="black" d="M415.137,-252.635C440.063,-222.724 500.534,-150.159 530.929,-113.686"/>
<polygon fill="black" stroke="black" points="533.912,-115.573 537.625,-105.65 528.534,-111.092 533.912,-115.573"/>
</g>
<!-- a33&#45;&gt;FORWARD -->
<g id="edge53" class="edge"><title>a33&#45;&gt;FORWARD</title>
<path fill="none" stroke="black" d="M420.072,-259.571C445.113,-249.555 493.659,-230.137 523.51,-218.196"/>
<polygon fill="black" stroke="black" points="524.872,-221.421 532.856,-214.457 522.272,-214.922 524.872,-221.421"/>
</g>
<!-- a33&#45;&gt;RIGHT -->
<g id="edge48" class="edge"><title>a33&#45;&gt;RIGHT</title>
<path fill="none" stroke="black" d="M417.641,-255.087C442.902,-234.878 497.141,-191.487 527.426,-167.259"/>
<polygon fill="black" stroke="black" points="529.667,-169.949 535.289,-160.969 525.294,-164.482 529.667,-169.949"/>
</g>
<!-- a43&#45;&gt;LEFT -->
<g id="edge44" class="edge"><title>a43&#45;&gt;LEFT</title>
<path fill="none" stroke="black" d="M417.641,-197.087C442.902,-176.878 497.141,-133.487 527.426,-109.259"/>
<polygon fill="black" stroke="black" points="529.667,-111.949 535.289,-102.969 525.294,-106.482 529.667,-111.949"/>
</g>
<!-- a43&#45;&gt;FORWARD -->
<g id="edge54" class="edge"><title>a43&#45;&gt;FORWARD</title>
<path fill="none" stroke="black" d="M421.203,-208C446.057,-208 492.258,-208 521.772,-208"/>
<polygon fill="black" stroke="black" points="521.82,-211.5 531.82,-208 521.82,-204.5 521.82,-211.5"/>
</g>
<!-- a43&#45;&gt;RIGHT -->
<g id="edge49" class="edge"><title>a43&#45;&gt;RIGHT</title>
<path fill="none" stroke="black" d="M420.072,-201.571C445.113,-191.555 493.659,-172.137 523.51,-160.196"/>
<polygon fill="black" stroke="black" points="524.872,-163.421 532.856,-156.457 522.272,-156.922 524.872,-163.421"/>
</g>
<!-- a53&#45;&gt;LEFT -->
<g id="edge45" class="edge"><title>a53&#45;&gt;LEFT</title>
<path fill="none" stroke="black" d="M420.072,-143.571C445.113,-133.555 493.659,-114.137 523.51,-102.196"/>
<polygon fill="black" stroke="black" points="524.872,-105.421 532.856,-98.4574 522.272,-98.9217 524.872,-105.421"/>
</g>
<!-- a53&#45;&gt;FORWARD -->
<g id="edge55" class="edge"><title>a53&#45;&gt;FORWARD</title>
<path fill="none" stroke="black" d="M420.072,-156.429C445.113,-166.445 493.659,-185.863 523.51,-197.804"/>
<polygon fill="black" stroke="black" points="522.272,-201.078 532.856,-201.543 524.872,-194.579 522.272,-201.078"/>
</g>
<!-- a53&#45;&gt;RIGHT -->
<g id="edge50" class="edge"><title>a53&#45;&gt;RIGHT</title>
<path fill="none" stroke="black" d="M421.203,-150C446.057,-150 492.258,-150 521.772,-150"/>
<polygon fill="black" stroke="black" points="521.82,-153.5 531.82,-150 521.82,-146.5 521.82,-153.5"/>
</g>
</g>
</svg>
