<?xml version="1.0" encoding="UTF-8" standalone="no"?>
<!DOCTYPE svg PUBLIC "-//W3C//DTD SVG 1.1//EN"
 "http://www.w3.org/Graphics/SVG/1.1/DTD/svg11.dtd">
<!-- Generated by graphviz version 2.38.0 (20140413.2041)
 -->
<!-- Title: G Pages: 1 -->
<svg width="630pt" height="346pt"
 viewBox="0.00 0.00 630.00 346.00" xmlns="http://www.w3.org/2000/svg" xmlns:xlink="http://www.w3.org/1999/xlink">
<g id="graph0" class="graph" transform="scale(1 1) rotate(0) translate(4 342)">
<title>G</title>
<polygon fill="white" stroke="none" points="-4,4 -4,-342 626,-342 626,4 -4,4"/>
<g id="clust1" class="cluster"><title>cluster_0</title>
<polygon fill="none" stroke="white" points="0,-66 0,-272 191,-272 191,-66 0,-66"/>
<text text-anchor="middle" x="95.5" y="-256.8" font-family="Times,serif" font-size="14.00">DISTANCE INFORMATION </text>
<text text-anchor="middle" x="95.5" y="-241.8" font-family="Times,serif" font-size="14.00">84 units</text>
</g>
<g id="clust2" class="cluster"><title>cluster_1</title>
<polygon fill="none" stroke="white" points="211,-8 211,-330 328,-330 328,-8 211,-8"/>
<text text-anchor="middle" x="269.5" y="-314.8" font-family="Times,serif" font-size="14.00">HIDDEN LAYER</text>
<text text-anchor="middle" x="269.5" y="-299.8" font-family="Times,serif" font-size="14.00">32 units</text>
</g>
<g id="clust3" class="cluster"><title>cluster_2</title>
<polygon fill="none" stroke="white" points="348,-8 348,-330 465,-330 465,-8 348,-8"/>
<text text-anchor="middle" x="406.5" y="-314.8" font-family="Times,serif" font-size="14.00">HIDDEN LAYER</text>
<text text-anchor="middle" x="406.5" y="-299.8" font-family="Times,serif" font-size="14.00">32 units</text>
</g>
<g id="clust4" class="cluster"><title>cluster_3</title>
<polygon fill="none" stroke="white" points="485,-66 485,-272 622,-272 622,-66 485,-66"/>
<text text-anchor="middle" x="553.5" y="-256.8" font-family="Times,serif" font-size="14.00">OUTPUT ACTIONS</text>
<text text-anchor="middle" x="553.5" y="-241.8" font-family="Times,serif" font-size="14.00">3 units</text>
</g>
<!-- x1 -->
<g id="node1" class="node"><title>x1</title>
<ellipse fill="none" stroke="#00008b" cx="95" cy="-150" rx="18" ry="18"/>
</g>
<!-- a12 -->
<g id="node4" class="node"><title>a12</title>
<ellipse fill="none" stroke="#ee0000" cx="269" cy="-92" rx="18" ry="18"/>
</g>
<!-- x1&#45;&gt;a12 -->
<g id="edge1" class="edge"><title>x1&#45;&gt;a12</title>
<path fill="none" stroke="black" d="M112.181,-144.544C142.018,-134.482 205.935,-112.929 241.947,-100.785"/>
<polygon fill="black" stroke="black" points="243.379,-103.996 251.736,-97.4843 241.142,-97.3631 243.379,-103.996"/>
</g>
<!-- a22 -->
<g id="node5" class="node"><title>a22</title>
<ellipse fill="none" stroke="#ee0000" cx="269" cy="-34" rx="18" ry="18"/>
</g>
<!-- x1&#45;&gt;a22 -->
<g id="edge2" class="edge"><title>x1&#45;&gt;a22</title>
<path fill="none" stroke="black" d="M110.369,-140.309C140.141,-120.23 208.793,-73.93 244.878,-49.5936"/>
<polygon fill="black" stroke="black" points="246.974,-52.4021 253.308,-43.9089 243.06,-46.5986 246.974,-52.4021"/>
</g>
<!-- a32 -->
<g id="node6" class="node"><title>a32</title>
<ellipse fill="none" stroke="#ee0000" cx="269" cy="-266" rx="18" ry="18"/>
</g>
<!-- x1&#45;&gt;a32 -->
<g id="edge3" class="edge"><title>x1&#45;&gt;a32</title>
<path fill="none" stroke="black" d="M110.369,-159.691C140.141,-179.77 208.793,-226.07 244.878,-250.406"/>
<polygon fill="black" stroke="black" points="243.06,-253.401 253.308,-256.091 246.974,-247.598 243.06,-253.401"/>
</g>
<!-- a42 -->
<g id="node7" class="node"><title>a42</title>
<ellipse fill="none" stroke="#ee0000" cx="269" cy="-208" rx="18" ry="18"/>
</g>
<!-- x1&#45;&gt;a42 -->
<g id="edge4" class="edge"><title>x1&#45;&gt;a42</title>
<path fill="none" stroke="black" d="M112.181,-155.456C142.018,-165.518 205.935,-187.071 241.947,-199.215"/>
<polygon fill="black" stroke="black" points="241.142,-202.637 251.736,-202.516 243.379,-196.004 241.142,-202.637"/>
</g>
<!-- a52 -->
<g id="node8" class="node"><title>a52</title>
<ellipse fill="none" stroke="#ee0000" cx="269" cy="-150" rx="18" ry="18"/>
</g>
<!-- x1&#45;&gt;a52 -->
<g id="edge5" class="edge"><title>x1&#45;&gt;a52</title>
<path fill="none" stroke="black" d="M113.121,-150C142.999,-150 204.887,-150 240.726,-150"/>
<polygon fill="black" stroke="black" points="240.948,-153.5 250.948,-150 240.948,-146.5 240.948,-153.5"/>
</g>
<!-- x2 -->
<g id="node2" class="node"><title>x2</title>
<ellipse fill="none" stroke="#00008b" cx="95" cy="-92" rx="18" ry="18"/>
</g>
<!-- x2&#45;&gt;a12 -->
<g id="edge6" class="edge"><title>x2&#45;&gt;a12</title>
<path fill="none" stroke="black" d="M113.121,-92C142.999,-92 204.887,-92 240.726,-92"/>
<polygon fill="black" stroke="black" points="240.948,-95.5001 250.948,-92 240.948,-88.5001 240.948,-95.5001"/>
</g>
<!-- x2&#45;&gt;a22 -->
<g id="edge7" class="edge"><title>x2&#45;&gt;a22</title>
<path fill="none" stroke="black" d="M112.181,-86.5435C142.018,-76.4823 205.935,-54.9289 241.947,-42.7853"/>
<polygon fill="black" stroke="black" points="243.379,-45.9961 251.736,-39.4843 241.142,-39.3631 243.379,-45.9961"/>
</g>
<!-- x2&#45;&gt;a32 -->
<g id="edge8" class="edge"><title>x2&#45;&gt;a32</title>
<path fill="none" stroke="black" d="M108.37,-104.514C137.874,-134.361 212.573,-209.928 248.333,-246.104"/>
<polygon fill="black" stroke="black" points="246.223,-248.948 255.742,-253.6 251.201,-244.027 246.223,-248.948"/>
</g>
<!-- x2&#45;&gt;a42 -->
<g id="edge9" class="edge"><title>x2&#45;&gt;a42</title>
<path fill="none" stroke="black" d="M110.369,-101.691C140.141,-121.77 208.793,-168.07 244.878,-192.406"/>
<polygon fill="black" stroke="black" points="243.06,-195.401 253.308,-198.091 246.974,-189.598 243.06,-195.401"/>
</g>
<!-- x2&#45;&gt;a52 -->
<g id="edge10" class="edge"><title>x2&#45;&gt;a52</title>
<path fill="none" stroke="black" d="M112.181,-97.4565C142.018,-107.518 205.935,-129.071 241.947,-141.215"/>
<polygon fill="black" stroke="black" points="241.142,-144.637 251.736,-144.516 243.379,-138.004 241.142,-144.637"/>
</g>
<!-- x3 -->
<g id="node3" class="node"><title>x3</title>
<ellipse fill="none" stroke="#00008b" cx="95" cy="-208" rx="18" ry="18"/>
</g>
<!-- x3&#45;&gt;a12 -->
<g id="edge11" class="edge"><title>x3&#45;&gt;a12</title>
<path fill="none" stroke="black" d="M110.369,-198.309C140.141,-178.23 208.793,-131.93 244.878,-107.594"/>
<polygon fill="black" stroke="black" points="246.974,-110.402 253.308,-101.909 243.06,-104.599 246.974,-110.402"/>
</g>
<!-- x3&#45;&gt;a22 -->
<g id="edge12" class="edge"><title>x3&#45;&gt;a22</title>
<path fill="none" stroke="black" d="M108.37,-195.486C137.874,-165.639 212.573,-90.0716 248.333,-53.8955"/>
<polygon fill="black" stroke="black" points="251.201,-55.9727 255.742,-46.4003 246.223,-51.0516 251.201,-55.9727"/>
</g>
<!-- x3&#45;&gt;a32 -->
<g id="edge13" class="edge"><title>x3&#45;&gt;a32</title>
<path fill="none" stroke="black" d="M112.181,-213.456C142.018,-223.518 205.935,-245.071 241.947,-257.215"/>
<polygon fill="black" stroke="black" points="241.142,-260.637 251.736,-260.516 243.379,-254.004 241.142,-260.637"/>
</g>
<!-- x3&#45;&gt;a42 -->
<g id="edge14" class="edge"><title>x3&#45;&gt;a42</title>
<path fill="none" stroke="black" d="M113.121,-208C142.999,-208 204.887,-208 240.726,-208"/>
<polygon fill="black" stroke="black" points="240.948,-211.5 250.948,-208 240.948,-204.5 240.948,-211.5"/>
</g>
<!-- x3&#45;&gt;a52 -->
<g id="edge15" class="edge"><title>x3&#45;&gt;a52</title>
<path fill="none" stroke="black" d="M112.181,-202.544C142.018,-192.482 205.935,-170.929 241.947,-158.785"/>
<polygon fill="black" stroke="black" points="243.379,-161.996 251.736,-155.484 241.142,-155.363 243.379,-161.996"/>
</g>
<!-- a13 -->
<g id="node9" class="node"><title>a13</title>
<ellipse fill="none" stroke="#ee0000" cx="406" cy="-92" rx="18" ry="18"/>
</g>
<!-- a12&#45;&gt;a13 -->
<g id="edge16" class="edge"><title>a12&#45;&gt;a13</title>
<path fill="none" stroke="black" d="M287.098,-92C309.897,-92 350.521,-92 377.614,-92"/>
<polygon fill="black" stroke="black" points="377.615,-95.5001 387.615,-92 377.615,-88.5001 377.615,-95.5001"/>
</g>
<!-- a23 -->
<g id="node10" class="node"><title>a23</title>
<ellipse fill="none" stroke="#ee0000" cx="406" cy="-34" rx="18" ry="18"/>
</g>
<!-- a12&#45;&gt;a23 -->
<g id="edge21" class="edge"><title>a12&#45;&gt;a23</title>
<path fill="none" stroke="black" d="M285.75,-85.2332C308.794,-75.3328 351.949,-56.7924 379.537,-44.9395"/>
<polygon fill="black" stroke="black" points="381.125,-48.0668 388.931,-40.9035 378.362,-41.6352 381.125,-48.0668"/>
</g>
<!-- a33 -->
<g id="node11" class="node"><title>a33</title>
<ellipse fill="none" stroke="#ee0000" cx="406" cy="-266" rx="18" ry="18"/>
</g>
<!-- a12&#45;&gt;a33 -->
<g id="edge26" class="edge"><title>a12&#45;&gt;a33</title>
<path fill="none" stroke="black" d="M280.819,-105.945C304.221,-136.107 359.699,-207.612 387.902,-243.963"/>
<polygon fill="black" stroke="black" points="385.234,-246.233 394.129,-251.989 390.764,-241.942 385.234,-246.233"/>
</g>
<!-- a43 -->
<g id="node12" class="node"><title>a43</title>
<ellipse fill="none" stroke="#ee0000" cx="406" cy="-208" rx="18" ry="18"/>
</g>
<!-- a12&#45;&gt;a43 -->
<g id="edge31" class="edge"><title>a12&#45;&gt;a43</title>
<path fill="none" stroke="black" d="M283.438,-103.547C306.99,-123.784 355.883,-165.796 383.956,-189.918"/>
<polygon fill="black" stroke="black" points="381.751,-192.638 391.616,-196.5 386.313,-187.328 381.751,-192.638"/>
</g>
<!-- a53 -->
<g id="node13" class="node"><title>a53</title>
<ellipse fill="none" stroke="#ee0000" cx="406" cy="-150" rx="18" ry="18"/>
</g>
<!-- a12&#45;&gt;a53 -->
<g id="edge36" class="edge"><title>a12&#45;&gt;a53</title>
<path fill="none" stroke="black" d="M285.75,-98.7668C308.794,-108.667 351.949,-127.208 379.537,-139.061"/>
<polygon fill="black" stroke="black" points="378.362,-142.365 388.931,-143.096 381.125,-135.933 378.362,-142.365"/>
</g>
<!-- a22&#45;&gt;a13 -->
<g id="edge17" class="edge"><title>a22&#45;&gt;a13</title>
<path fill="none" stroke="black" d="M285.75,-40.7668C308.794,-50.6672 351.949,-69.2076 379.537,-81.0605"/>
<polygon fill="black" stroke="black" points="378.362,-84.3648 388.931,-85.0965 381.125,-77.9332 378.362,-84.3648"/>
</g>
<!-- a22&#45;&gt;a23 -->
<g id="edge22" class="edge"><title>a22&#45;&gt;a23</title>
<path fill="none" stroke="black" d="M287.098,-34C309.897,-34 350.521,-34 377.614,-34"/>
<polygon fill="black" stroke="black" points="377.615,-37.5001 387.615,-34 377.615,-30.5001 377.615,-37.5001"/>
</g>
<!-- a22&#45;&gt;a33 -->
<g id="edge27" class="edge"><title>a22&#45;&gt;a33</title>
<path fill="none" stroke="black" d="M278.858,-49.2222C301.79,-88.6319 363.244,-194.242 391.024,-241.982"/>
<polygon fill="black" stroke="black" points="388.055,-243.839 396.11,-250.722 394.105,-240.318 388.055,-243.839"/>
</g>
<!-- a22&#45;&gt;a43 -->
<g id="edge32" class="edge"><title>a22&#45;&gt;a43</title>
<path fill="none" stroke="black" d="M280.819,-47.945C304.221,-78.107 359.699,-149.612 387.902,-185.963"/>
<polygon fill="black" stroke="black" points="385.234,-188.233 394.129,-193.989 390.764,-183.942 385.234,-188.233"/>
</g>
<!-- a22&#45;&gt;a53 -->
<g id="edge37" class="edge"><title>a22&#45;&gt;a53</title>
<path fill="none" stroke="black" d="M283.438,-45.5466C306.99,-65.7838 355.883,-107.796 383.956,-131.918"/>
<polygon fill="black" stroke="black" points="381.751,-134.638 391.616,-138.5 386.313,-129.328 381.751,-134.638"/>
</g>
<!-- a32&#45;&gt;a13 -->
<g id="edge18" class="edge"><title>a32&#45;&gt;a13</title>
<path fill="none" stroke="black" d="M280.819,-252.055C304.221,-221.893 359.699,-150.388 387.902,-114.037"/>
<polygon fill="black" stroke="black" points="390.764,-116.058 394.129,-106.011 385.234,-111.767 390.764,-116.058"/>
</g>
<!-- a32&#45;&gt;a23 -->
<g id="edge23" class="edge"><title>a32&#45;&gt;a23</title>
<path fill="none" stroke="black" d="M278.858,-250.778C301.79,-211.368 363.244,-105.758 391.024,-58.0178"/>
<polygon fill="black" stroke="black" points="394.105,-59.6817 396.11,-49.2782 388.055,-56.1611 394.105,-59.6817"/>
</g>
<!-- a32&#45;&gt;a33 -->
<g id="edge28" class="edge"><title>a32&#45;&gt;a33</title>
<path fill="none" stroke="black" d="M287.098,-266C309.897,-266 350.521,-266 377.614,-266"/>
<polygon fill="black" stroke="black" points="377.615,-269.5 387.615,-266 377.615,-262.5 377.615,-269.5"/>
</g>
<!-- a32&#45;&gt;a43 -->
<g id="edge33" class="edge"><title>a32&#45;&gt;a43</title>
<path fill="none" stroke="black" d="M285.75,-259.233C308.794,-249.333 351.949,-230.792 379.537,-218.939"/>
<polygon fill="black" stroke="black" points="381.125,-222.067 388.931,-214.904 378.362,-215.635 381.125,-222.067"/>
</g>
<!-- a32&#45;&gt;a53 -->
<g id="edge38" class="edge"><title>a32&#45;&gt;a53</title>
<path fill="none" stroke="black" d="M283.438,-254.453C306.99,-234.216 355.883,-192.204 383.956,-168.082"/>
<polygon fill="black" stroke="black" points="386.313,-170.672 391.616,-161.5 381.751,-165.362 386.313,-170.672"/>
</g>
<!-- a42&#45;&gt;a13 -->
<g id="edge19" class="edge"><title>a42&#45;&gt;a13</title>
<path fill="none" stroke="black" d="M283.438,-196.453C306.99,-176.216 355.883,-134.204 383.956,-110.082"/>
<polygon fill="black" stroke="black" points="386.313,-112.672 391.616,-103.5 381.751,-107.362 386.313,-112.672"/>
</g>
<!-- a42&#45;&gt;a23 -->
<g id="edge24" class="edge"><title>a42&#45;&gt;a23</title>
<path fill="none" stroke="black" d="M280.819,-194.055C304.221,-163.893 359.699,-92.3876 387.902,-56.0368"/>
<polygon fill="black" stroke="black" points="390.764,-58.0578 394.129,-48.0114 385.234,-53.7668 390.764,-58.0578"/>
</g>
<!-- a42&#45;&gt;a33 -->
<g id="edge29" class="edge"><title>a42&#45;&gt;a33</title>
<path fill="none" stroke="black" d="M285.75,-214.767C308.794,-224.667 351.949,-243.208 379.537,-255.061"/>
<polygon fill="black" stroke="black" points="378.362,-258.365 388.931,-259.096 381.125,-251.933 378.362,-258.365"/>
</g>
<!-- a42&#45;&gt;a43 -->
<g id="edge34" class="edge"><title>a42&#45;&gt;a43</title>
<path fill="none" stroke="black" d="M287.098,-208C309.897,-208 350.521,-208 377.614,-208"/>
<polygon fill="black" stroke="black" points="377.615,-211.5 387.615,-208 377.615,-204.5 377.615,-211.5"/>
</g>
<!-- a42&#45;&gt;a53 -->
<g id="edge39" class="edge"><title>a42&#45;&gt;a53</title>
<path fill="none" stroke="black" d="M285.75,-201.233C308.794,-191.333 351.949,-172.792 379.537,-160.939"/>
<polygon fill="black" stroke="black" points="381.125,-164.067 388.931,-156.904 378.362,-157.635 381.125,-164.067"/>
</g>
<!-- a52&#45;&gt;a13 -->
<g id="edge20" class="edge"><title>a52&#45;&gt;a13</title>
<path fill="none" stroke="black" d="M285.75,-143.233C308.794,-133.333 351.949,-114.792 379.537,-102.939"/>
<polygon fill="black" stroke="black" points="381.125,-106.067 388.931,-98.9035 378.362,-99.6352 381.125,-106.067"/>
</g>
<!-- a52&#45;&gt;a23 -->
<g id="edge25" class="edge"><title>a52&#45;&gt;a23</title>
<path fill="none" stroke="black" d="M283.438,-138.453C306.99,-118.216 355.883,-76.2043 383.956,-52.0822"/>
<polygon fill="black" stroke="black" points="386.313,-54.6717 391.616,-45.4999 381.751,-49.3625 386.313,-54.6717"/>
</g>
<!-- a52&#45;&gt;a33 -->
<g id="edge30" class="edge"><title>a52&#45;&gt;a33</title>
<path fill="none" stroke="black" d="M283.438,-161.547C306.99,-181.784 355.883,-223.796 383.956,-247.918"/>
<polygon fill="black" stroke="black" points="381.751,-250.638 391.616,-254.5 386.313,-245.328 381.751,-250.638"/>
</g>
<!-- a52&#45;&gt;a43 -->
<g id="edge35" class="edge"><title>a52&#45;&gt;a43</title>
<path fill="none" stroke="black" d="M285.75,-156.767C308.794,-166.667 351.949,-185.208 379.537,-197.061"/>
<polygon fill="black" stroke="black" points="378.362,-200.365 388.931,-201.096 381.125,-193.933 378.362,-200.365"/>
</g>
<!-- a52&#45;&gt;a53 -->
<g id="edge40" class="edge"><title>a52&#45;&gt;a53</title>
<path fill="none" stroke="black" d="M287.098,-150C309.897,-150 350.521,-150 377.614,-150"/>
<polygon fill="black" stroke="black" points="377.615,-153.5 387.615,-150 377.615,-146.5 377.615,-153.5"/>
</g>
<!-- LEFT -->
<g id="node14" class="node"><title>LEFT</title>
<ellipse fill="none" stroke="#4eee94" cx="553" cy="-92" rx="18" ry="18"/>
<text text-anchor="middle" x="553" y="-88.3" font-family="Times,serif" font-size="14.00">LEFT</text>
</g>
<!-- a13&#45;&gt;LEFT -->
<g id="edge41" class="edge"><title>a13&#45;&gt;LEFT</title>
<path fill="none" stroke="black" d="M424.203,-92C449.057,-92 495.258,-92 524.772,-92"/>
<polygon fill="black" stroke="black" points="524.82,-95.5001 534.82,-92 524.82,-88.5001 524.82,-95.5001"/>
</g>
<!-- FORWARD -->
<g id="node15" class="node"><title>FORWARD</title>
<ellipse fill="none" stroke="#4eee94" cx="553" cy="-208" rx="18" ry="18"/>
<text text-anchor="middle" x="553" y="-204.3" font-family="Times,serif" font-size="14.00">FORWARD</text>
</g>
<!-- a13&#45;&gt;FORWARD -->
<g id="edge51" class="edge"><title>a13&#45;&gt;FORWARD</title>
<path fill="none" stroke="black" d="M420.641,-102.913C445.902,-123.122 500.141,-166.513 530.426,-190.741"/>
<polygon fill="black" stroke="black" points="528.294,-193.518 538.289,-197.031 532.667,-188.051 528.294,-193.518"/>
</g>
<!-- RIGHT -->
<g id="node16" class="node"><title>RIGHT</title>
<ellipse fill="none" stroke="#4eee94" cx="553" cy="-150" rx="18" ry="18"/>
<text text-anchor="middle" x="553" y="-146.3" font-family="Times,serif" font-size="14.00">RIGHT</text>
</g>
<!-- a13&#45;&gt;RIGHT -->
<g id="edge46" class="edge"><title>a13&#45;&gt;RIGHT</title>
<path fill="none" stroke="black" d="M423.072,-98.4286C448.113,-108.445 496.659,-127.863 526.51,-139.804"/>
<polygon fill="black" stroke="black" points="525.272,-143.078 535.856,-143.543 527.872,-136.579 525.272,-143.078"/>
</g>
<!-- a23&#45;&gt;LEFT -->
<g id="edge42" class="edge"><title>a23&#45;&gt;LEFT</title>
<path fill="none" stroke="black" d="M423.072,-40.4286C448.113,-50.4451 496.659,-69.8634 526.51,-81.8042"/>
<polygon fill="black" stroke="black" points="525.272,-85.0783 535.856,-85.5426 527.872,-78.5789 525.272,-85.0783"/>
</g>
<!-- a23&#45;&gt;FORWARD -->
<g id="edge52" class="edge"><title>a23&#45;&gt;FORWARD</title>
<path fill="none" stroke="black" d="M418.137,-47.3646C443.063,-77.2756 503.534,-149.841 533.929,-186.314"/>
<polygon fill="black" stroke="black" points="531.534,-188.908 540.625,-194.35 536.912,-184.427 531.534,-188.908"/>
</g>
<!-- a23&#45;&gt;RIGHT -->
<g id="edge47" class="edge"><title>a23&#45;&gt;RIGHT</title>
<path fill="none" stroke="black" d="M420.641,-44.913C445.902,-65.1217 500.141,-108.513 530.426,-132.741"/>
<polygon fill="black" stroke="black" points="528.294,-135.518 538.289,-139.031 532.667,-130.051 528.294,-135.518"/>
</g>
<!-- a33&#45;&gt;LEFT -->
<g id="edge43" class="edge"><title>a33&#45;&gt;LEFT</title>
<path fill="none" stroke="black" d="M418.137,-252.635C443.063,-222.724 503.534,-150.159 533.929,-113.686"/>
<polygon fill="black" stroke="black" points="536.912,-115.573 540.625,-105.65 531.534,-111.092 536.912,-115.573"/>
</g>
<!-- a33&#45;&gt;FORWARD -->
<g id="edge53" class="edge"><title>a33&#45;&gt;FORWARD</title>
<path fill="none" stroke="black" d="M423.072,-259.571C448.113,-249.555 496.659,-230.137 526.51,-218.196"/>
<polygon fill="black" stroke="black" points="527.872,-221.421 535.856,-214.457 525.272,-214.922 527.872,-221.421"/>
</g>
<!-- a33&#45;&gt;RIGHT -->
<g id="edge48" class="edge"><title>a33&#45;&gt;RIGHT</title>
<path fill="none" stroke="black" d="M420.641,-255.087C445.902,-234.878 500.141,-191.487 530.426,-167.259"/>
<polygon fill="black" stroke="black" points="532.667,-169.949 538.289,-160.969 528.294,-164.482 532.667,-169.949"/>
</g>
<!-- a43&#45;&gt;LEFT -->
<g id="edge44" class="edge"><title>a43&#45;&gt;LEFT</title>
<path fill="none" stroke="black" d="M420.641,-197.087C445.902,-176.878 500.141,-133.487 530.426,-109.259"/>
<polygon fill="black" stroke="black" points="532.667,-111.949 538.289,-102.969 528.294,-106.482 532.667,-111.949"/>
</g>
<!-- a43&#45;&gt;FORWARD -->
<g id="edge54" class="edge"><title>a43&#45;&gt;FORWARD</title>
<path fill="none" stroke="black" d="M424.203,-208C449.057,-208 495.258,-208 524.772,-208"/>
<polygon fill="black" stroke="black" points="524.82,-211.5 534.82,-208 524.82,-204.5 524.82,-211.5"/>
</g>
<!-- a43&#45;&gt;RIGHT -->
<g id="edge49" class="edge"><title>a43&#45;&gt;RIGHT</title>
<path fill="none" stroke="black" d="M423.072,-201.571C448.113,-191.555 496.659,-172.137 526.51,-160.196"/>
<polygon fill="black" stroke="black" points="527.872,-163.421 535.856,-156.457 525.272,-156.922 527.872,-163.421"/>
</g>
<!-- a53&#45;&gt;LEFT -->
<g id="edge45" class="edge"><title>a53&#45;&gt;LEFT</title>
<path fill="none" stroke="black" d="M423.072,-143.571C448.113,-133.555 496.659,-114.137 526.51,-102.196"/>
<polygon fill="black" stroke="black" points="527.872,-105.421 535.856,-98.4574 525.272,-98.9217 527.872,-105.421"/>
</g>
<!-- a53&#45;&gt;FORWARD -->
<g id="edge55" class="edge"><title>a53&#45;&gt;FORWARD</title>
<path fill="none" stroke="black" d="M423.072,-156.429C448.113,-166.445 496.659,-185.863 526.51,-197.804"/>
<polygon fill="black" stroke="black" points="525.272,-201.078 535.856,-201.543 527.872,-194.579 525.272,-201.078"/>
</g>
<!-- a53&#45;&gt;RIGHT -->
<g id="edge50" class="edge"><title>a53&#45;&gt;RIGHT</title>
<path fill="none" stroke="black" d="M424.203,-150C449.057,-150 495.258,-150 524.772,-150"/>
<polygon fill="black" stroke="black" points="524.82,-153.5 534.82,-150 524.82,-146.5 524.82,-153.5"/>
</g>
</g>
</svg>
